<?xml version="1.0" encoding="utf-8"?>
<!-- Generator: Adobe Illustrator 16.0.0, SVG Export Plug-In . SVG Version: 6.00 Build 0)  -->
<!DOCTYPE svg PUBLIC "-//W3C//DTD SVG 1.1//EN" "http://www.w3.org/Graphics/SVG/1.1/DTD/svg11.dtd">
<svg version="1.1" id="Layer_1" xmlns="http://www.w3.org/2000/svg" xmlns:xlink="http://www.w3.org/1999/xlink" x="0px" y="0px"
	 width="135.015px" height="25.803px" viewBox="0 0 135.015 25.803" enable-background="new 0 0 135.015 25.803"
	 xml:space="preserve">
<g>
	<path fill="#FCB216" d="M16.64,1.222c-0.983,0.165-1.896,0.572-2.711,1.154c-0.459,0.333-0.897,0.693-1.333,1.036
		c-0.552,0.43-0.998,0.963-1.379,1.545c-0.408,0.633-0.676,1.323-0.859,2.078c0.047-0.011,0.088-0.017,0.115-0.034
		c0.64-0.382,1.274-0.768,1.912-1.147c0.42-0.254,0.891-0.343,1.393-0.356c-1.539,1.18-2.974,2.457-3.979,4.119
		c1.124-0.439,2.219-1.133,3.555-1.044c-1.514,1.003-2.74,2.26-3.746,3.824c1.249-0.509,2.383-1.167,3.756-1.15
		c-0.182,0.334-0.34,0.643-0.512,0.93c-0.249,0.427-0.461,0.886-0.781,1.248c-0.686,0.783-1.498,1.424-2.491,1.778
		c-0.687,0.25-1.384,0.497-2.094,0.632c-0.626,0.121-1.286,0.109-1.927,0.114c-0.26,0-0.527-0.083-0.772-0.178
		c-0.808-0.33-1.423-0.924-1.938-1.598c-0.799-1.056-1.346-2.241-1.607-3.536c-0.113-0.521-0.135-1.068-0.215-1.591
		c-0.115-0.736-0.043-1.47,0.096-2.19c0.109-0.554,0.305-1.099,0.51-1.63C1.808,4.764,2.09,4.341,2.506,4.05
		c0.507-0.355,1.098-0.399,1.681-0.349c0.443,0.046,0.736,0.434,0.64,0.792c-0.112,0.408-0.248,0.8-0.391,1.191
		c-0.232,0.648-0.501,1.277-0.49,1.987c0.004,0.578,0.6,1.343,1.299,1.262c0.077-0.013,0.154-0.059,0.23-0.083
		c-0.04-0.062-0.078-0.128-0.134-0.173C4.891,8.251,4.799,7.92,5.422,7.528c0.53-0.332,1.077-0.633,1.363-1.259
		C6.994,5.826,7.197,5.371,7.093,4.88C6.918,4.032,6.387,3.408,5.635,3.01C4.74,2.537,3.797,2.485,2.83,2.794
		C2.242,2.98,1.73,3.284,1.352,3.792C0.793,4.543,0.388,5.375,0.178,6.275C0.046,6.831-0.002,7.419,0,7.995
		c0.008,0.788,0.056,1.583,0.158,2.359c0.07,0.559,0.207,1.118,0.412,1.637c0.268,0.678,0.626,1.326,0.961,1.979
		c0.48,0.927,0.904,1.876,1.041,2.925c0.031,0.304,0.082,0.626,0.033,0.926c-0.131,0.677-0.475,1.274-0.84,1.854
		c-0.426,0.678-0.855,1.367-1.228,2.079c-0.315,0.605-0.25,1.252,0.198,1.792c0.241,0.286,0.479,0.574,0.642,0.907
		c0.209,0.399,0.315,0.843,0.144,1.332c1.397,0.065,2.777-0.073,4.182-0.136c-0.004-0.072,0-0.118-0.018-0.13
		c-0.398-0.353-0.568-0.837-0.763-1.31c-0.085-0.215-0.237-0.293-0.468-0.213c-0.186,0.065-0.373,0.111-0.558,0.156
		c-0.274,0.069-0.458-0.11-0.39-0.395c0.041-0.179,0.096-0.359,0.109-0.539c0.016-0.22,0.139-0.294,0.31-0.338
		c0.774-0.173,1.47-0.506,2.017-1.077c0.359-0.376,0.646-0.814,0.992-1.201c0.33-0.374,0.68-0.726,1.043-1.067
		c0.166-0.156,0.402-0.22,0.639-0.168c0.265,0.059,0.525,0.146,0.785,0.216c0.729,0.192,1.447,0.394,2.172,0.562
		c1.323,0.313,2.658,0.584,3.982,0.902c0.827,0.197,1.658,0.172,2.484,0.076c0.792-0.091,1.588-0.229,2.379-0.34
		c0.063-0.004,0.18,0.058,0.205,0.117c0.131,0.247,0.223,0.51,0.354,0.76c0.234,0.419,0.436,0.862,0.729,1.24
		c0.437,0.563,0.947,1.073,1.407,1.625c0.245,0.308,0.438,0.654,0.353,1.082c-0.003,0.026,0.076,0.103,0.123,0.11
		c0.212,0.026,0.42,0.055,0.633,0.055c0.597-0.013,1.197-0.035,1.795-0.055c0.457-0.012,0.914-0.033,1.376-0.046
		c0.062-0.007,0.124-0.022,0.169-0.032c-0.142-0.197-0.289-0.36-0.39-0.547c-0.142-0.27-0.254-0.552-0.37-0.839
		c-0.127-0.301-0.299-0.389-0.615-0.299c-0.156,0.048-0.311,0.086-0.454,0.16c-0.494,0.25-0.686,0.025-0.856-0.321
		c-0.101-0.186-0.172-0.406-0.184-0.619c-0.041-0.646-0.021-1.292,0.146-1.924c0.145-0.554,0.32-1.108,0.482-1.661
		c0.053-0.156,0.132-0.254,0.332-0.162c0.381,0.166,0.775,0.302,1.162,0.458c0.294,0.122,0.588,0.257,0.893,0.396
		c-0.043-0.333-0.051-0.621-0.121-0.906c-0.188-0.778-0.04-1.552,0.049-2.326c0.061-0.522,0.178-1.028,0.25-1.552
		c0.082-0.532,0.102-1.081,0.219-1.606c0.131-0.605-0.051-1.074-0.486-1.468c-0.484-0.438-1.061-0.743-1.666-0.996
		c-0.326-0.138-0.668-0.258-0.988-0.401c-0.104-0.047-0.281-0.115-0.171-0.282c0.114-0.163,0.254-0.348,0.422-0.445
		c0.551-0.306,1.29-0.007,1.772,0.412c0.269,0.235,0.485,0.526,0.752,0.823c0.025-0.126,0.061-0.248,0.076-0.367
		c0.073-0.448,0.157-0.901-0.029-1.343c-0.063-0.134-0.171-0.258-0.192-0.396c-0.042-0.268-0.109-0.326-0.36-0.19
		c-0.203,0.105-0.408,0.198-0.646,0.164c-0.407-0.052-0.805-0.091-1.208-0.146c-0.206-0.033-0.419-0.065-0.616-0.133
		c-0.381-0.12-0.391-0.159-0.299-0.557c0.107-0.455,0.318-0.859,0.762-1.018c0.322-0.104,0.688-0.078,1.035-0.126
		c0.355-0.046,0.67,0.022,0.896,0.33c0.054,0.081,0.152,0.117,0.275,0.194c0.021-0.109,0.026-0.196,0.054-0.267
		c0.046-0.134,0.079-0.262,0.141-0.375c0.108-0.189,0.267-0.359,0.342-0.56c0.104-0.284,0.133-0.596,0.222-0.886
		c0.142-0.434,0.13-0.854,0.025-1.297c-0.068-0.276-0.049-0.571-0.033-0.853c0.014-0.255,0.083-0.504,0.141-0.827
		c-0.261,0.017-0.451,0.021-0.636,0.041c-0.295,0.026-0.603,0.053-0.886,0.103c-0.435,0.072-0.86,0.154-1.273,0.269
		c-0.293,0.077-0.564,0.233-0.85,0.331c-0.058,0.025-0.158-0.016-0.209-0.058c-0.115-0.107-0.184-0.291-0.309-0.329
		c-0.412-0.125-0.842-0.2-1.259-0.313c-0.185-0.053-0.366-0.164-0.522-0.277c-0.262-0.188-0.497-0.441-0.78-0.594
		c-0.825-0.443-1.685-0.74-2.625-0.87c-0.351-0.042-0.7-0.068-1.05-0.068C17.494,1.117,17.069,1.151,16.64,1.222"/>
	<polygon fill="#FFFFFF" points="44.006,2.115 41.504,2.12 37.597,7.608 37.597,2.125 35.508,2.125 35.521,13.513 37.609,13.509 
		37.602,7.857 41.381,13.504 44.047,13.504 40.013,7.699 	"/>
	
		<rect x="40.199" y="6.711" transform="matrix(-0.0015 -1 1 -0.0015 38.1544 53.7078)" fill="#FFFFFF" width="11.382" height="2.189"/>
	<polygon fill="#FFFFFF" points="54.967,2.102 55.052,10.302 51.001,2.106 48.356,2.106 48.364,13.492 50.509,13.492 50.412,4.898 
		54.68,13.484 57.087,13.484 57.066,2.101 	"/>
	<path fill="#FFFFFF" d="M62.709,6.729l0.01,2.009h2.777v2.668c-2.217-0.006-3.506-0.172-3.866-0.515
		c-0.352-0.335-0.574-0.785-0.685-1.354c-0.025-0.124-0.059-0.285-0.063-0.468l-0.004-0.025c-0.007-0.091-0.024-0.226-0.051-0.397
		l-0.04-1.183c0-0.937,0.153-1.689,0.458-2.264c0.405-0.758,1.032-1.13,1.898-1.135l4.472-0.002l-0.014-1.983
		c-3.371,0.009-5.282,0.046-5.717,0.108c-0.441,0.058-0.785,0.168-1.049,0.33c-0.924,0.532-1.57,1.289-1.939,2.283
		c-0.296,0.792-0.45,1.731-0.448,2.84c-0.011,1.065,0.093,1.957,0.285,2.673c0.255,0.865,0.598,1.517,1.04,1.96l0.5,0.447
		c0.245,0.167,0.422,0.28,0.545,0.348l0.752,0.281c0.139,0.04,0.273,0.074,0.42,0.09l0.034,0.021
		c0.038,0.01,0.149,0.012,0.319,0.012l5.28-0.009l-0.013-6.74L62.709,6.729z"/>
	<path fill="#FFFFFF" d="M77.615,7.74l-0.301-0.281l-0.242-0.208c-0.208-0.137-0.404-0.232-0.634-0.278l-0.285-0.068l-0.337-0.05
		l-0.791-0.009c-2.204,0-3.436-0.1-3.699-0.3c-0.255-0.217-0.368-0.568-0.381-1.028c0.009-0.46,0.15-0.819,0.443-1.062
		c0.306-0.216,0.695-0.328,1.196-0.333l5.157-0.01l-0.007-2.037h-5.494c-1.1,0.004-1.939,0.257-2.507,0.752
		c-0.641,0.584-0.963,1.559-0.963,2.932s0.521,2.292,1.572,2.747c0.478,0.213,1.23,0.321,2.27,0.321l0.673-0.019h0.48
		c1.109,0,1.786,0.134,2.029,0.403c0.036,0.058,0.082,0.125,0.111,0.21c0.052,0.075,0.07,0.167,0.092,0.284
		c0.024,0.125,0.029,0.363,0.029,0.715c0.01,0.328-0.177,0.59-0.512,0.789c-0.226,0.138-0.596,0.21-1.102,0.21l-5.225,0.005
		l0.012,2.046c4.812-0.013,7.499-0.256,8.055-0.744c0.652-0.548,0.97-1.251,0.963-2.109c0.007-0.81-0.044-1.432-0.13-1.867
		C78.001,8.301,77.83,7.961,77.615,7.74"/>
	<path fill="#FFFFFF" d="M95.808,6.904c0.672-0.435,0.982-1.084,0.99-1.963l-0.005-0.307c0-1.472-1.464-2.653-2.667-2.645
		c-0.193,0-0.338,0.148-0.322,0.332l-0.016,0.861c0,0.183,0.167,0.338,0.342,0.33c0.469,0,0.995,0.6,1.012,1.127l0.004,0.517
		c-0.004,0.744-0.526,1.014-1.038,1.014h-1.323c-0.183,0.002-0.338,0.15-0.334,0.342v0.839c0.004,0.188,0.151,0.339,0.334,0.335
		l1.381,0.003c0.677-0.003,1.253,0.868,1.253,1.915l0.012,0.715c-0.008,1.135-0.514,1.665-1.59,1.67
		c-1.084,0-1.583-0.731-1.577-1.391v-0.336c-0.008-0.294,0.097-0.691,0.387-0.919c0.081-0.058,0.123-0.141,0.123-0.237
		c0.016-0.087-0.017-0.178-0.075-0.252l-0.534-0.588c-0.102-0.135-0.281-0.16-0.432-0.068c-0.575,0.386-1.132,1.13-1.129,1.931
		l-0.013,0.626c0.01,1.331,1.316,2.748,3.256,2.748c1.897-0.006,3.228-1.308,3.228-3.184l0.009-0.723
		C97.073,8.301,96.654,7.414,95.808,6.904"/>
	<path fill="#FFFFFF" d="M100.968,1.973c-1.479,0-3.238,0.771-3.221,4.385l0.002,2.561c-0.002,2.751,0.75,4.295,2.247,4.573
		c0.019,0.004,0.044,0,0.061,0.004c0.085,0,0.147-0.032,0.217-0.077c0.075-0.061,0.118-0.152,0.118-0.253l0.021-0.844
		c0-0.093-0.039-0.182-0.101-0.244c-0.064-0.063-0.149-0.098-0.233-0.098c-0.228,0.006-0.683-0.774-0.678-3.061l-0.013-2.582
		c-0.005-2.115,0.418-2.833,1.646-2.833c0.937,0,1.531,0.463,1.531,2.787v2.622c0,2.089-0.54,3.067-0.896,3.067
		c-0.102,0.006-0.191,0.04-0.251,0.108c-0.064,0.075-0.107,0.167-0.095,0.258l0.074,0.847c0.014,0.097,0.08,0.18,0.147,0.236
		c0.071,0.056,0.173,0.081,0.267,0.064c2.073-0.477,2.403-3.101,2.403-4.612l0.021-2.593C104.224,4.431,103.878,1.973,100.968,1.973
		"/>
	<path fill="#FFFFFF" d="M108.705,5.24c-0.403,0-1.054,0.093-1.664,0.607v-1.46c-0.017-0.752,0.451-0.752,0.627-0.759l0.042,0.004
		c0.31,0,0.61,0.06,0.92,0.135c0.326,0.064,0.667,0.141,1.045,0.145c0.678,0,1.228-0.168,1.906-0.582
		c0.083-0.056,0.166-0.172,0.159-0.288l0.007-0.739c-0.017-0.116-0.058-0.228-0.166-0.29c-0.093-0.066-0.21-0.066-0.319-0.02
		l-0.041,0.02c-0.61,0.276-0.961,0.435-1.446,0.435c-0.3,0-0.627-0.079-0.969-0.159c-0.419-0.091-0.837-0.19-1.288-0.188
		c-1.236,0.004-2.049,0.883-2.039,2.229v5.91c0.017,1.938,1.313,3.251,3.252,3.243c1.996,0,3.227-1.24,3.227-3.239V8.472
		C111.948,6.871,110.845,5.232,108.705,5.24 M110.302,10.133c0.008,1.226-0.511,1.836-1.588,1.836c-1.447,0-1.58-1.327-1.58-1.738
		l-0.011-1.693c0.011-1.792,0.963-1.796,1.607-1.792c1.421-0.008,1.571,1.245,1.571,1.771V10.133z"/>
	<path fill="#FFFFFF" d="M117.918,5.793l0.543-1.178c0.016-0.043,0.032-0.093,0.032-0.144c0-1.603-0.936-2.519-2.558-2.515
		c-1.262,0-2.623,0.835-2.623,2.177v0.907c0.006,0.191,0.149,0.339,0.332,0.343l0.896-0.003c0.175,0.003,0.325-0.148,0.335-0.339
		V4.131c-0.018-0.561,0.659-0.645,1.061-0.645c0.537,0,0.936,0.576,0.986,0.923l-0.577,1.157c-2.575,0.176-3.729,1.922-3.72,3.624
		v0.841c0,1.438,1.405,3.442,3.67,3.442c2.692,0,3.702-2.059,3.744-3.448V9.039C120.065,7.344,118.886,6.246,117.918,5.793
		 M118.359,9.904c0.009,0.772-0.259,2.065-2.006,2.065c-1.521,0-2.064-1.235-2.073-2.064l0.009-0.677
		c-0.009-1.342,0.692-2.139,1.873-2.139h0.492c1.154,0.003,1.705,1.148,1.705,1.925V9.904z"/>
	<path fill="#FFFFFF" d="M125.582,5.901c0-0.226,0.06-0.307,0.284-0.616l0.066-0.078c0.066-0.091,0.094-0.208,0.051-0.311
		c-0.035-0.106-0.117-0.189-0.233-0.218l-0.987-0.28c-0.141-0.034-0.284,0.015-0.358,0.135c-0.369,0.53-0.437,0.995-0.428,1.369
		c-0.009,0.602,0.403,1.121,0.82,1.656c0.453,0.573,0.895,1.154,0.895,1.85V9.81c0.007,0.637-0.143,2.146-1.572,2.141
		c-1.07,0.005-1.597-0.699-1.597-2.12V2.283c-0.009-0.184-0.151-0.335-0.343-0.335h-0.988c-0.184,0-0.332,0.152-0.315,0.335v7.547
		c0,2.278,1.211,3.634,3.235,3.628c1.881,0.006,3.242-1.497,3.232-3.554l0.01-0.651c-0.01-0.952-0.584-1.624-1.085-2.213
		C125.891,6.616,125.582,6.249,125.582,5.901"/>
	<path fill="#FFFFFF" d="M131.242,1.931c-1.48,0.009-3.229,0.769-3.229,4.397v2.558c0.009,2.75,0.763,4.288,2.259,4.562
		c0.015,0.004,0.048,0.004,0.058,0.01c0.066,0,0.161-0.025,0.218-0.081c0.074-0.057,0.116-0.162,0.126-0.253v-0.843
		c0.017-0.095-0.026-0.181-0.083-0.242c-0.069-0.061-0.151-0.095-0.235-0.097c-0.218-0.007-0.679-0.771-0.686-3.063l0.007-2.584
		c-0.007-2.112,0.401-2.827,1.622-2.831c0.946-0.002,1.539,0.463,1.53,2.785l0.009,2.63c-0.009,2.089-0.536,3.063-0.895,3.056
		c-0.102,0-0.192,0.043-0.251,0.115c-0.065,0.074-0.102,0.169-0.092,0.258l0.075,0.84c0.017,0.1,0.075,0.185,0.15,0.24
		c0.074,0.053,0.167,0.076,0.269,0.053c2.065-0.465,2.399-3.083,2.399-4.607l0.015-2.589C134.509,4.387,134.16,1.931,131.242,1.931"
		/>
	<path fill="#FFFFFF" d="M84.597,0c-0.622,0.011-1.124,0.5-1.12,1.12l0.014,13.493c0.006,0.626,0.514,1.123,1.124,1.123
		c0.625,0,1.128-0.502,1.128-1.132L85.725,1.12C85.725,0.5,85.211,0,84.597,0"/>
	<path fill="#FFFFFF" d="M53.458,20.8h-0.196c-0.563,0-0.58,0.171-0.58,0.588v1.568c0,0.649,0.171,0.657,0.605,0.657h0.154
		c0.477,0,0.597-0.085,0.597-0.708v-1.535C54.038,20.928,53.944,20.8,53.458,20.8"/>
	<path fill="#FFFFFF" d="M62.754,19.12L62.6,19.094c0.025,0.162,0.043,0.487,0.043,0.649l0.025,1.799
		c0,0.11-0.043,0.212-0.197,0.212h-0.408c-0.128,0-0.196-0.102-0.196-0.212l0.026-1.792c0-0.162,0.008-0.494,0.033-0.656
		l-0.145,0.025c-0.418,0-0.709,0.196-0.709,0.75v3.019c0,0.555,0.291,0.75,0.709,0.75h0.929c0.418,0,0.708-0.196,0.708-0.75V19.87
		C63.418,19.316,63.171,19.12,62.754,19.12"/>
	<path fill="#FFFFFF" d="M118.559,20.765h-0.23c-0.521,0-0.521,0.188-0.521,0.572v1.688c0,0.503,0.076,0.614,0.555,0.614h0.145
		c0.451,0,0.571-0.06,0.571-0.605V21.32C119.078,20.885,118.968,20.765,118.559,20.765"/>
	<path fill="#FFFFFF" d="M34.612,25.313h100.402v-7.885H34.612V25.313z M41.17,18.907c0,0.152-0.084,0.196-0.196,0.196h-0.247
		c-0.333,0-0.384,0.093-0.384,0.35v0.094c0,0.11-0.043,0.197-0.196,0.197h-0.504c-0.127,0-0.195-0.086-0.195-0.197V19.47
		c0-0.315-0.077-0.426-0.342-0.426c-0.289,0-0.375,0.119-0.375,0.597v0.639c0.162-0.127,0.375-0.153,0.674-0.153h0.052
		c1.117,0,1.594,0.136,1.594,1.262v1.663c0.026,1.057-0.333,1.313-1.339,1.313h-0.57c-1.023,0-1.339-0.231-1.339-1.416v-3.343
		c0-1.109,0.519-1.33,1.237-1.33c0.502,0,0.689,0.188,0.852,0.486h0.033c0.146-0.298,0.461-0.426,0.793-0.426h0.257
		c0.112,0,0.196,0.068,0.196,0.196V18.907z M45.092,23.025c-0.008,0.981-0.17,1.34-1.355,1.34h-0.35
		c-0.896,0-1.355-0.154-1.355-1.11v-1.143c0-0.11,0.068-0.196,0.195-0.196h0.504c0.153,0,0.195,0.085,0.195,0.196v0.905
		c0,0.478,0.035,0.622,0.479,0.622h0.307c0.367,0,0.486-0.103,0.486-0.571l0.009-1.314c-0.009-1.304-1.433-1.79-1.433-3.027v-0.196
		c0-0.111,0.068-0.196,0.195-0.196h0.504c0.152,0,0.195,0.084,0.195,0.196v0.188c0,0.93,1.434,1.672,1.434,3.035L45.092,23.025z
		 M50.703,24.109c0,0.111-0.042,0.196-0.195,0.196h-0.52c-0.129,0-0.197-0.085-0.197-0.196v-0.085l0.009-2.542
		c0-0.648-0.129-0.674-0.503-0.674c-0.333,0-0.385,0.222-0.385,0.605v1.417c0,0.111-0.041,0.195-0.195,0.195h-0.546
		c-0.128,0-0.196-0.084-0.196-0.195v-1.399c0-0.478-0.085-0.623-0.385-0.623c-0.289,0-0.484,0.06-0.484,0.537v2.763
		c0,0.111-0.044,0.196-0.197,0.196h-0.512c-0.128,0-0.195-0.085-0.195-0.196V19.75c0-0.912,0.555-1.415,1.544-1.415h2.243
		c0.11,0,0.195,0.042,0.195,0.196v0.333c0,0.128-0.085,0.196-0.195,0.196h-2.184c-0.418,0-0.709,0.197-0.709,0.751v0.435
		c0.137-0.111,0.368-0.205,0.572-0.205c0.434,0,0.648,0.162,0.785,0.41h0.043c0.127-0.256,0.484-0.41,0.791-0.41
		c0.726,0,1.416,0.018,1.416,1.322V24.109z M54.959,23.076c0,1.025-0.333,1.289-1.356,1.289h-0.485c-0.93,0-1.355-0.128-1.355-1.365
		v-1.732c0-0.989,0.348-1.228,1.467-1.228h0.254c0.24,0,0.427,0.086,0.556,0.171v-0.597c0-0.477-0.162-0.571-0.478-0.571h-0.4
		c-0.299,0-0.504,0.119-0.504,0.4c0,0.111-0.043,0.197-0.196,0.197h-0.503c-0.128,0-0.195-0.085-0.195-0.197
		c-0.01-0.792,0.357-1.167,1.313-1.167h0.572c1.065,0,1.313,0.563,1.313,1.492V23.076z M59.044,23.025
		c-0.009,0.981-0.171,1.34-1.356,1.34h-0.349c-0.896,0-1.356-0.154-1.356-1.11v-1.143c0-0.11,0.068-0.196,0.195-0.196h0.504
		c0.153,0,0.196,0.085,0.196,0.196v0.905c0,0.478,0.034,0.622,0.478,0.622h0.307c0.366,0,0.486-0.103,0.486-0.571l0.008-1.314
		c-0.008-1.304-1.433-1.79-1.433-3.027v-0.196c0-0.111,0.069-0.196,0.196-0.196h0.504c0.153,0,0.196,0.084,0.196,0.196v0.188
		c0,0.93,1.432,1.672,1.432,3.035L59.044,23.025z M64.314,22.949c0,0.913-0.554,1.416-1.544,1.416h-1.05
		c-0.988,0-1.543-0.503-1.543-1.416v-3.138c0-0.912,0.555-1.416,1.543-1.416h0.162v-0.078c0-0.11,0.068-0.162,0.197-0.162h0.375
		c0.152,0,0.195,0.052,0.195,0.162v0.078h0.137c0.99,0,1.527,0.503,1.527,1.416V22.949z M68.604,23.061
		c0,1.031-0.428,1.305-1.271,1.305h-0.579c-1.075,0-1.39-0.154-1.39-1.365l-0.01-0.888c0-0.11,0.068-0.196,0.197-0.196h0.527
		c0.154,0,0.197,0.085,0.197,0.196v0.828c0,0.537,0.076,0.673,0.478,0.673h0.478c0.367,0,0.442-0.17,0.442-0.622v-3.395
		c0-0.435-0.075-0.554-0.587-0.554h-0.23c-0.359,0-0.487,0.162-0.504,0.563v0.247c0,0.111-0.042,0.196-0.195,0.196h-0.514
		c-0.126,0-0.195-0.085-0.195-0.196v-0.196c0-1.167,0.453-1.381,1.373-1.381h0.307c1.246,0,1.477,0.333,1.477,1.288V23.061z
		 M72.875,22.983c0,1.177-0.188,1.382-1.347,1.382h-0.486c-0.997,0-1.364-0.137-1.364-1.382v-1.705c0-0.956,0.375-1.237,1.373-1.237
		c0-0.818-0.861-0.375-0.861-1.321v-0.188c0-0.111,0.068-0.196,0.196-0.196h0.528c0.153,0,0.196,0.084,0.196,0.196v0.145
		c0,0.76,0.801,0.333,0.801,1.391c0.854,0.043,0.964,0.674,0.964,1.228V22.983z M76.951,23.025c-0.008,0.981-0.17,1.34-1.356,1.34
		h-0.349c-0.896,0-1.355-0.154-1.355-1.11v-1.143c0-0.11,0.068-0.196,0.195-0.196h0.503c0.154,0,0.197,0.085,0.197,0.196v0.905
		c0,0.478,0.034,0.622,0.478,0.622h0.307c0.367,0,0.486-0.103,0.486-0.571l0.009-1.314c-0.009-1.304-1.434-1.79-1.434-3.027v-0.196
		c0-0.111,0.069-0.196,0.197-0.196h0.503c0.153,0,0.195,0.084,0.195,0.196v0.188c0,0.93,1.434,1.672,1.434,3.035L76.951,23.025z
		 M83.355,22.906c0,1.22-0.298,1.459-1.363,1.459h-0.513c-1.253,0-1.365-0.478-1.365-1.391v-1.681c0-1.117,0.547-1.253,1.417-1.253
		h0.384v-0.716c0-0.23-0.034-0.349-0.4-0.349c-0.309,0-0.351,0.17-0.351,0.315v0.085c0,0.111-0.068,0.196-0.195,0.196h-0.53
		c-0.152,0-0.195-0.085-0.195-0.196v-0.077c0-0.486,0.256-1.023,1.262-1.023c0.929,0,1.288,0.29,1.288,1.228v0.648
		c0.47,0.153,0.563,0.554,0.563,1.194V22.906z M87.73,23.061c0,1.031-0.427,1.305-1.271,1.305h-0.648
		c-1.074,0-1.39-0.154-1.39-1.365l-0.009-0.888c0-0.11,0.067-0.196,0.196-0.196h0.521c0.153,0,0.195,0.085,0.195,0.196l0.009,0.828
		c0,0.537,0.077,0.673,0.478,0.673h0.546c0.367,0,0.444-0.17,0.444-0.622v-1.015c0-0.512-0.087-0.623-0.538-0.623h-0.136
		c-0.095,0-0.146-0.061-0.146-0.137v-0.503c0-0.076,0.051-0.11,0.146-0.11c0.519,0,0.587-0.111,0.587-0.418v-0.588
		c0-0.435-0.076-0.554-0.587-0.554h-0.239c-0.358,0-0.486,0.162-0.504,0.563v0.247c0,0.111-0.042,0.196-0.195,0.196h-0.512
		c-0.128,0-0.197-0.085-0.197-0.196v-0.196c0-1.167,0.453-1.381,1.373-1.381h0.316c1.245,0,1.476,0.333,1.476,1.288v0.614
		c0,0.316-0.206,0.597-0.538,0.776v0.043c0.41,0.059,0.623,0.563,0.623,0.835V23.061z M91.799,23.025
		c-0.009,0.981-0.171,1.34-1.357,1.34h-0.349c-0.896,0-1.356-0.154-1.356-1.11v-1.143c0-0.11,0.068-0.196,0.196-0.196h0.503
		c0.154,0,0.196,0.085,0.196,0.196v0.905c0,0.478,0.034,0.622,0.478,0.622h0.308c0.366,0,0.485-0.103,0.485-0.571l0.01-1.314
		c-0.01-1.304-1.434-1.79-1.434-3.027v-0.196c0-0.111,0.067-0.196,0.196-0.196h0.503c0.154,0,0.196,0.084,0.196,0.196v0.188
		c0,0.93,1.434,1.672,1.434,3.035L91.799,23.025z M96.088,23.061c0,1.031-0.427,1.305-1.271,1.305h-0.58
		c-1.074,0-1.39-0.154-1.39-1.365l-0.009-0.888c0-0.11,0.067-0.196,0.196-0.196h0.528c0.153,0,0.196,0.085,0.196,0.196v0.828
		c0,0.537,0.076,0.673,0.478,0.673h0.478c0.366,0,0.443-0.17,0.443-0.622v-3.395c0-0.435-0.077-0.554-0.589-0.554H94.34
		c-0.358,0-0.485,0.162-0.504,0.563v0.247c0,0.111-0.042,0.196-0.195,0.196h-0.512c-0.129,0-0.196-0.085-0.196-0.196v-0.196
		c0-1.167,0.451-1.381,1.373-1.381h0.307c1.245,0,1.476,0.333,1.476,1.288V23.061z M101.698,24.109c0,0.111-0.042,0.196-0.196,0.196
		h-0.519c-0.128,0-0.198-0.085-0.198-0.196v-0.085l0.011-2.542c0-0.648-0.129-0.674-0.504-0.674c-0.333,0-0.385,0.222-0.385,0.605
		v1.417c0,0.111-0.042,0.195-0.196,0.195h-0.545c-0.128,0-0.196-0.084-0.196-0.195v-1.399c0-0.478-0.086-0.623-0.384-0.623
		c-0.289,0-0.485,0.06-0.485,0.537v2.763c0,0.111-0.043,0.196-0.197,0.196h-0.511c-0.128,0-0.197-0.085-0.197-0.196V19.75
		c0-0.912,0.556-1.415,1.544-1.415h2.244c0.11,0,0.195,0.042,0.195,0.196v0.333c0,0.128-0.085,0.196-0.195,0.196H98.8
		c-0.418,0-0.709,0.197-0.709,0.751v0.435c0.138-0.111,0.368-0.205,0.572-0.205c0.435,0,0.648,0.162,0.784,0.41h0.043
		c0.128-0.256,0.486-0.41,0.793-0.41c0.725,0,1.415,0.018,1.415,1.322V24.109z M107.532,24.109c0,0.111-0.043,0.196-0.196,0.196
		h-0.528c-0.129,0-0.197-0.085-0.197-0.196v-4.605c0-0.299-0.076-0.46-0.478-0.46c-0.35,0-0.392,0.281-0.392,0.63v3.292
		c0,1.031-0.247,1.399-1.433,1.399h-0.154c-1.116,0-1.39-0.444-1.39-1.237V19.53c0-0.989,0.726-1.254,1.476-1.254
		c0.341,0,0.853,0.179,1.023,0.503h0.042c0.162-0.315,0.453-0.503,0.862-0.503h0.161c0.888,0,1.203,0.34,1.203,1.33V24.109z
		 M111.736,24.109c0,0.111-0.043,0.196-0.197,0.196h-0.503c-0.127,0-0.196-0.085-0.196-0.196v-4.503c0-0.443-0.085-0.605-0.52-0.605
		h-0.273c-0.443,0-0.52,0.145-0.52,0.656v4.452c0,0.111-0.043,0.196-0.196,0.196h-0.503c-0.128,0-0.196-0.085-0.196-0.196v-4.503
		c0-0.93,0.265-1.33,1.271-1.33h0.563c1.151,0,1.271,0.597,1.271,1.381V24.109z M115.82,23.025c-0.009,0.981-0.17,1.34-1.355,1.34
		h-0.35c-0.896,0-1.355-0.154-1.355-1.11v-1.143c0-0.11,0.067-0.196,0.195-0.196h0.504c0.153,0,0.195,0.085,0.195,0.196v0.905
		c0,0.478,0.034,0.622,0.479,0.622h0.306c0.368,0,0.487-0.103,0.487-0.571l0.008-1.314c-0.008-1.304-1.432-1.79-1.432-3.027v-0.196
		c0-0.111,0.067-0.196,0.195-0.196h0.503c0.154,0,0.196,0.084,0.196,0.196v0.188c0,0.93,1.434,1.672,1.434,3.035L115.82,23.025z
		 M119.973,23.025c0,1.066-0.246,1.34-1.313,1.34h-0.435c-1.066,0-1.313-0.308-1.313-1.297v-3.548c0-0.929,0.342-1.185,1.262-1.185
		h1.383c0.11,0,0.196,0.042,0.196,0.196v0.316c0,0.128-0.086,0.196-0.196,0.196h-1.383c-0.333,0-0.366,0.179-0.366,0.623v0.528
		c0.196-0.128,0.427-0.154,0.631-0.154h0.29c1.151,0,1.244,0.453,1.244,1.289V23.025z M124.237,23.061
		c0,1.031-0.426,1.305-1.271,1.305h-0.579c-1.076,0-1.39-0.154-1.39-1.365l-0.01-0.888c0-0.11,0.068-0.196,0.196-0.196h0.528
		c0.154,0,0.197,0.085,0.197,0.196v0.828c0,0.537,0.076,0.673,0.478,0.673h0.476c0.368,0,0.444-0.17,0.444-0.622v-3.395
		c0-0.435-0.076-0.554-0.588-0.554h-0.23c-0.358,0-0.486,0.162-0.503,0.563v0.247c0,0.111-0.043,0.196-0.196,0.196h-0.512
		c-0.128,0-0.196-0.085-0.196-0.196v-0.196c0-1.167,0.452-1.381,1.373-1.381h0.307c1.246,0,1.476,0.333,1.476,1.288V23.061z
		 M128.51,22.983c0,1.177-0.188,1.382-1.347,1.382h-0.486c-0.998,0-1.364-0.137-1.364-1.382v-1.705c0-0.956,0.376-1.237,1.372-1.237
		c0-0.818-0.861-0.375-0.861-1.321v-0.188c0-0.111,0.069-0.196,0.196-0.196h0.529c0.153,0,0.196,0.084,0.196,0.196v0.145
		c0,0.76,0.801,0.333,0.801,1.391c0.854,0.043,0.964,0.674,0.964,1.228V22.983z M132.714,22.932c0,1.262-0.392,1.433-1.313,1.433
		h-0.494c-0.947,0-1.313-0.222-1.313-1.391v-4.443c0-0.111,0.042-0.196,0.196-0.196h0.528c0.129,0,0.196,0.084,0.196,0.196v4.418
		c0,0.486,0.06,0.665,0.503,0.665h0.29c0.435,0,0.495-0.17,0.495-0.614v-2.678c0-0.111,0.042-0.196,0.196-0.196h0.52
		c0.129,0,0.196,0.085,0.196,0.196V22.932z"/>
	<path fill="#FFFFFF" d="M104.223,19.043c-0.332,0-0.528,0.076-0.528,0.511v3.557c0,0.332,0.17,0.502,0.528,0.502
		c0.435,0,0.589-0.187,0.589-0.469v-3.667C104.812,19.179,104.657,19.043,104.223,19.043"/>
	<path fill="#FFFFFF" d="M38.73,22.949c0,0.52,0.061,0.665,0.503,0.665h0.392c0.41,0,0.505-0.094,0.505-0.673v-1.442
		c-0.026-0.502-0.087-0.614-0.64-0.614h-0.129c-0.52,0-0.631,0.085-0.631,0.597V22.949z"/>
	<path fill="#FFFFFF" d="M71.349,20.8h-0.146c-0.536,0-0.597,0.119-0.597,0.554V23c0.026,0.528,0.103,0.623,0.572,0.623h0.179
		c0.512,0,0.597-0.086,0.597-0.666v-1.543C71.954,20.928,71.911,20.8,71.349,20.8"/>
	<path fill="#FFFFFF" d="M81.838,20.8h-0.204c-0.538,0-0.597,0.171-0.597,0.597v1.586c0,0.503,0.093,0.624,0.494,0.624h0.409
		c0.417,0,0.493-0.146,0.493-0.666v-1.527C82.434,20.885,82.29,20.8,81.838,20.8"/>
	<path fill="#FFFFFF" d="M126.983,20.8h-0.145c-0.537,0-0.597,0.119-0.597,0.554V23c0.025,0.528,0.102,0.623,0.571,0.623h0.18
		c0.51,0,0.596-0.086,0.596-0.666v-1.543C127.589,20.928,127.546,20.8,126.983,20.8"/>
</g>
</svg>
