<?xml version="1.0" encoding="iso-8859-1"?>
<!-- Generator: Adobe Illustrator 19.0.0, SVG Export Plug-In . SVG Version: 6.00 Build 0)  -->
<svg version="1.1" id="Capa_1" xmlns="http://www.w3.org/2000/svg" xmlns:xlink="http://www.w3.org/1999/xlink" x="0px" y="0px"
	 viewBox="0 0 512.047 512.047" style="enable-background:new 0 0 512.047 512.047;" xml:space="preserve">
<path style="fill:#ECEFF9;" d="M93.091,488.774h325.818c6.982,0,11.636-4.655,11.636-11.636V128.047h-69.818
	c-19.782,0-34.909-15.127-34.909-34.909V23.32H93.091c-6.982,0-11.636,4.655-11.636,11.636v442.182
	C81.455,484.12,86.109,488.774,93.091,488.774z"/>
<path style="fill:#014463;" d="M418.909,512.047H93.091c-19.782,0-34.909-15.127-34.909-34.909V34.956
	c0-19.782,15.127-34.909,34.909-34.909h244.364c6.982,0,11.636,4.655,11.636,11.636v81.455c0,6.982,4.655,11.636,11.636,11.636
	h81.455c6.982,0,11.636,4.655,11.636,11.636v360.727C453.818,496.92,438.691,512.047,418.909,512.047z M93.091,23.32
	c-6.982,0-11.636,4.655-11.636,11.636v442.182c0,6.982,4.655,11.636,11.636,11.636h325.818c6.982,0,11.636-4.655,11.636-11.636
	V128.047h-69.818c-19.782,0-34.909-15.127-34.909-34.909V23.32H93.091z"/>
<path style="fill:#70B7E5;" d="M360.727,104.774h53.527l-65.164-65.164v53.527C349.091,100.12,353.745,104.774,360.727,104.774z"/>
<path style="fill:#014463;" d="M442.182,128.047h-81.455c-19.782,0-34.909-15.127-34.909-34.909V11.684
	c0-4.655,2.327-9.309,6.982-10.473c4.655-2.327,9.309-1.164,12.8,2.327l104.727,104.727c3.491,3.491,4.655,8.145,2.327,12.8
	C451.491,125.72,446.836,128.047,442.182,128.047z M349.091,39.611v53.527c0,6.982,4.655,11.636,11.636,11.636h53.527
	L349.091,39.611z"/>
<polygon style="fill:#CEDAE6;" points="430.545,128.047 360.727,128.047 430.545,197.865 "/>
<g>
	<path style="fill:#014463;" d="M384,290.956H244.364c-6.982,0-11.636-4.655-11.636-11.636s4.655-11.636,11.636-11.636H384
		c6.982,0,11.636,4.655,11.636,11.636S390.982,290.956,384,290.956z"/>
	<path style="fill:#014463;" d="M314.182,337.502h-69.818c-6.982,0-11.636-4.655-11.636-11.636c0-6.982,4.655-11.636,11.636-11.636
		h69.818c6.982,0,11.636,4.655,11.636,11.636C325.818,332.847,321.164,337.502,314.182,337.502z"/>
	<path style="fill:#014463;" d="M360.727,186.229H244.364c-6.982,0-11.636-4.655-11.636-11.636s4.655-11.636,11.636-11.636h116.364
		c6.982,0,11.636,4.655,11.636,11.636S367.709,186.229,360.727,186.229z"/>
	<path style="fill:#014463;" d="M279.273,232.774h-34.909c-6.982,0-11.636-4.655-11.636-11.636s4.655-11.636,11.636-11.636h34.909
		c6.982,0,11.636,4.655,11.636,11.636S286.255,232.774,279.273,232.774z"/>
	<path style="fill:#014463;" d="M349.091,395.684H244.364c-6.982,0-11.636-4.655-11.636-11.636c0-6.982,4.655-11.636,11.636-11.636
		h104.727c6.982,0,11.636,4.655,11.636,11.636C360.727,391.029,356.073,395.684,349.091,395.684z"/>
	<path style="fill:#014463;" d="M302.545,442.229h-58.182c-6.982,0-11.636-4.655-11.636-11.636c0-6.982,4.655-11.636,11.636-11.636
		h58.182c6.982,0,11.636,4.655,11.636,11.636C314.182,437.574,309.527,442.229,302.545,442.229z"/>
</g>
<rect x="151.273" y="290.956" style="fill:#90C962;" width="23.273" height="23.273"/>
<path style="fill:#014463;" d="M186.182,337.502h-46.545c-6.982,0-11.636-4.655-11.636-11.636V279.32
	c0-6.982,4.655-11.636,11.636-11.636h46.545c6.982,0,11.636,4.655,11.636,11.636v46.545
	C197.818,332.847,193.164,337.502,186.182,337.502z M151.273,314.229h23.273v-23.273h-23.273V314.229z"/>
<rect x="151.273" y="186.229" style="fill:#90C962;" width="23.273" height="23.273"/>
<path style="fill:#014463;" d="M186.182,232.774h-46.545c-6.982,0-11.636-4.655-11.636-11.636v-46.545
	c0-6.982,4.655-11.636,11.636-11.636h46.545c6.982,0,11.636,4.655,11.636,11.636v46.545
	C197.818,228.12,193.164,232.774,186.182,232.774z M151.273,209.502h23.273v-23.273h-23.273V209.502z"/>
<rect x="151.273" y="395.684" style="fill:#F04D4E;" width="23.273" height="23.273"/>
<path style="fill:#014463;" d="M186.182,442.229h-46.545c-6.982,0-11.636-4.655-11.636-11.636v-46.545
	c0-6.982,4.655-11.636,11.636-11.636h46.545c6.982,0,11.636,4.655,11.636,11.636v46.545
	C197.818,437.574,193.164,442.229,186.182,442.229z M151.273,418.956h23.273v-23.273h-23.273V418.956z"/>
<g>
</g>
<g>
</g>
<g>
</g>
<g>
</g>
<g>
</g>
<g>
</g>
<g>
</g>
<g>
</g>
<g>
</g>
<g>
</g>
<g>
</g>
<g>
</g>
<g>
</g>
<g>
</g>
<g>
</g>
</svg>
