<?xml version="1.0" encoding="utf-8"?>
<!-- Generator: Adobe Illustrator 16.0.0, SVG Export Plug-In . SVG Version: 6.00 Build 0)  -->
<!DOCTYPE svg PUBLIC "-//W3C//DTD SVG 1.1//EN" "http://www.w3.org/Graphics/SVG/1.1/DTD/svg11.dtd">
<svg version="1.1" id="Layer_1" xmlns="http://www.w3.org/2000/svg" xmlns:xlink="http://www.w3.org/1999/xlink" x="0px" y="0px"
	 width="131.57px" height="257.646px" viewBox="0 0 131.57 257.646" enable-background="new 0 0 131.57 257.646"
	 xml:space="preserve">
<g>
	<path fill-rule="evenodd" clip-rule="evenodd" fill="#010101" d="M108.204,177.257c0.032,21.307-6.787,40.807-15.789,59.723
		c-2.235,4.697-2.288,4.657,2.915,4.562c11.227-0.204,22.379,0.132,33.015,4.398c3.989,1.601,4.155,2.212,1.174,5.08
		c-4.512,4.342-10.297,5.65-16.166,6.096c-8.553,0.65-17.154,1.272-25.527-1.833c-2.024-0.749-4.521-0.113-6.733-0.501
		c-2.424-0.424-3.633-1.363-2.191-4.403c7.712-16.267,12.824-33.368,15.619-51.158c0.067-0.426,0.207-0.853,0.19-1.274
		c-0.079-2.064,1.389-5.356-0.35-5.906c-2.375-0.75-3.239,2.568-4.26,4.466c-8.645,16.089-12.388,33.729-15.895,51.404
		c-0.629,3.168-2.33,4.934-5.003,4.847c-11.377-0.375-22.303,4.076-33.768,2.833c-3.869-0.419-7.607-1.272-11.371-2.067
		c-1.145-0.241-2.804-0.648-3.05-2.035c-0.275-1.552,1.382-2.107,2.443-2.645c8.479-4.291,17.232-7.767,26.91-8.013
		c4.45-0.114,8.909-0.137,13.357,0.017c2.976,0.104,4.241-1.193,4.208-4.038c-0.222-19.341,4.311-38.135,6.481-57.199
		c0.173-1.517,3.111-4.008-0.764-5.087c-0.503-0.493-0.57-1.075-0.354-1.713c0.243-0.331,0.564-0.562,0.946-0.708
		c1.212-0.299,2.259,0.176,3.156,0.88c1.299,1.021,2.033,0.237,2.78-0.704c0.748-0.749,1.645-1.225,2.664-1.484
		c1.544-0.436,3.018-0.026,4.497,0.363c5.499-0.083,10.907-1.207,16.4-1.355C108.98,170.588,109.767,171.903,108.204,177.257z"/>
	<path fill-rule="evenodd" clip-rule="evenodd" fill="#0B0504" d="M114.077,52.693c0.311,4.155,2.33,7.869,2.789,12.068
		c1.092,10.006-4.115,17.209-9.875,24.264c-0.604,0.739-1.389,2.164-2.766,1.428c-1.289-0.688-0.615-2.013-0.597-3.109
		c0.037-2.429-0.283-4.773-2.095-7.663c-2.429,7.195-10.313,10.19-10.683,17.995c-0.287,0.353-0.65,0.59-1.087,0.715
		c-0.893,0.176-1.725,0.066-2.441-0.543c-0.297-0.733-0.114-1.434,0.314-2.022c2.268-3.112,2.292-5.517-1.96-6.739
		c-0.699-0.203-1.252-0.8-1.442-1.503c-0.809-3.008-2.419-3.726-5.451-2.683c-2.116,0.728-3.064-1.107-1.7-3.582
		c2.433-4.411,5.705-8.228,9.111-11.918c1.068-1.157,2.279-2.183,3.254-3.426c0.516-0.656,1.271-1.394,0.725-2.267
		c-0.564-0.901-1.556-0.521-2.341-0.247c-2.051,0.714-3.841,1.866-5.479,3.31c-4.421,3.898-7.202,8.854-9.346,14.234
		c-0.477,1.198-0.789,2.466-1.396,3.604c-3.594,6.729-5.158,9.249-12.158,3.919c-2.251-1.714-5.007-2.88-8.051-2.314
		c-0.985,0.183-2.048,0.595-2.093,1.817c-0.04,1.067,0.955,1.312,1.758,1.573c1.774,0.578,3.652,0.761,5.435,1.271
		c6.675,1.914,11.241,6.142,13.302,12.814c0.608,1.969,1.341,4.251-1.301,5.599c-0.673-0.018-1.192-0.335-1.625-0.823
		c-1.304-4.097-3.856-5.251-8.079-4.141c-3.173,0.834-6.383-0.426-9.473-1.444c-0.408-0.204-0.749-0.485-1.036-0.838
		c-0.325-0.64-0.378-1.302-0.191-1.99c0.389-0.934,1.157-1.323,2.097-1.458c3.659,0.311,7.308,0.941,11.565,0.975
		c-1.326-2.961-3.704-3.56-5.822-4.384c-2.673-1.04-5.609-1.203-8.297-2.168c-2.896-1.038-5.777-2.313-4.782-6.379
		c0.925-1.818,2.345-3.148,4.082-4.167c1.465-0.59,3.095-1.076,4.561-0.901c3.274,0.39,4.149-0.82,3.83-3.939
		c-0.665-6.459,3.661-10.422,7.68-14.485c1.69-0.449,1.973,1.206,2.889,1.916c4.318,3.494,7.547,3.443,10.798-0.184
		c3.296-3.677,3.501-9.223,0.409-12.477c-2.828-2.974-6.679-3.671-10.435-4.534c-3.055-0.702-6.24-1.087-8.543-3.563
		c-0.784-0.844-1.656-1.827-1.071-3.028c0.691-1.419,1.938-0.831,2.975-0.373c1.442,0.636,2.752,1.088,3.277-1.052
		c0.479-1.234,1.206-2.255,2.412-2.873c1.742-0.599,2.805,0.555,3.936,1.527c0.749,0.51,1.465,1.295,1.112,2.113
		c-1.848,4.284,1.067,3.752,4.118,3.903c-1.222-2.578-3.598-3.663-4.656-5.736c-1.116-0.757-2.034-1.743-3.04-2.627
		c-0.68-0.662-1.341-1.345-2.048-1.978c-2.037-2.078-3.734-0.709-5.44,0.545c-1.801,1.063-3.532,2.479-5.813,1.205
		c0.522-3.91,3.2-6.096,8.923-7.324c-0.864,0.082-1.734,0.256-2.593,0.209c-5.467-0.295-5.815-0.038-7.472,5.866
		c-0.557,1.073-0.604,2.89-2.286,2.622c-1.725-0.275-1.972-1.981-1.888-3.433c0.157-2.651-1.095-2.492-2.854-1.63
		c-2.062,1.012-4.026,2.169-5.65,3.692c-0.146,0.422-0.014,0.607,0.34,0.723c7.148,2.295,7.342,3.005,2.287,8.554
		c-1.549,1.703-2.793,3.641-4.257,5.405c-0.973,1.174-1.739,2.745-3.717,2.382c-1.624-2.429-0.246-4.367,1.094-6.254
		c1.239-1.744,3.042-3.021,4.346-4.843c-3.621-0.566-3.61-0.565-4.098,2.837c-0.129,0.903-0.714,1.541-1.408,2.084
		c-0.954,0.659-2.211,0.287-3.17,0.943c-0.998,0.453-1.925,1.585-3.113,0.353c-1.053-2.239-0.529-4.487,1.045-5.974
		c3.478-3.288,5.378-7.755,8.754-11.072c1.414-0.942,3.095-1.432,4.407-2.569c4.202-2,9.442-1.555,12.818-5.481
		c3.309-1.084,6.833-3.196,8.936,1.781c3.551,0.114,4.698,2.762,6.607,5.215c1.592,2.046,5.672,1.488,7.938,3.732
		c0.221,0.717-0.122,1.18-0.689,1.542c-1.896,0.777-3.611,0.242-4.94-0.528c5.384,4.326,12.743,5.699,18.716,9.751
		c2.594,1.759,5.63-0.212,8.383,0.655c2.416,1.073,4.802,2.18,5.738,4.965c1.323,5.985,2.444,12.014,3.577,18.04
		c-0.215,0.642-0.582,1.139-1.278,1.308c-2.21-0.592-2.073-2.89-3.243-4.638c-3.333,2.305-6.366,4.277-6.788,9.039
		c-0.383,4.334-2.629,8.301-4.809,12.146c2.411-2.295,4.557-4.75,5.639-7.956c0.568-1.68,1.179-3.435,3.364-3.308
		c2.155,0.126,2.575,2.003,3.094,3.648c0.303,0.958,0.225,2.158,0.769,2.883c0.852,1.133,0.58-0.703,1.149-0.671
		c0.629-0.632,1.809-0.298,2.215-1.31c4.979-9.274,4.596-18.121-2.032-26.487c-0.697-1.249,2.108-2.247,0.244-3.59
		c-0.515-1.057-0.918-2.206,0.105-3.078c0.945-0.806,1.872,0.02,2.626,0.554c1.454,1.027,3.312,1.616,4.041,3.494
		C114.977,51.163,114.824,52.011,114.077,52.693z"/>
	<path fill-rule="evenodd" clip-rule="evenodd" fill="#070707" d="M114.077,52.693c0.034-0.856,0.068-1.711,0.103-2.565
		c-1.749-5.876-5.245-9.906-11.401-11.562c-4.454-1.198-9.019-1.704-13.489-2.731c-7.873-1.812-14.927-5.059-20.009-11.668
		c-0.437-0.568-0.837-1.169-1.19-1.793c-4.123-7.268-4.96-12.388,6.502-12.13c-2.195,0.354-4.475,0.071-6.595,0.731
		c-2.32,0.721-4.48,1.917-6.702,2.912c-2.865,1.283-4.652,0.804-5.452-2.405c-0.537-2.154-1.771-3.899-3.624-5.373
		c0.24,1.096,0.746,1.988,1.001,2.959c1.345,5.124,0.182,6.602-5.106,6.203c-5.215-0.393-10.308,0.207-15.337,1.559
		c-3.393,0.911-6.47,2.428-8.87,5.03c-4.541,4.928-10.282,8.821-13.178,15.173c-0.998,1.41-2.313,2.662-2.283,4.591
		C6.281,45.513,5.688,49.896,4.52,54.1c-0.615,1.624-0.253,3.545-1.507,4.972c0,2.649,0,5.298,0,8.773
		c-3.685-4.908-3.264-9.894-2.487-14.303c2.568-14.572,9.562-26.825,21.196-36.196c7.721-6.219,16.727-5.857,25.823-4.766
		c1.091,0.131,2.342,1.174,3.201,0.148c0.876-1.047,0.259-2.446-0.214-3.646c-1.963-4.963-5.875-7.085-11.286-7.296
		c6.681-3.953,16.132-1.091,19.363,6.061c1.264,2.794,1.938,2.984,4.405,1.479C67.812,6.4,73.063,6.366,78.335,8.019
		c2.407,0.755,4.342,2.131,5.34,5.064c-4.522-0.667-8.77-0.369-13.031,0.595c-2.853,0.646-3.639,1.325-1.911,4.157
		c4.756,7.796,11.973,11.66,20.534,13.508c5.725,1.235,11.568,1.987,16.979,4.418c7.927,3.561,12.776,11.389,12.015,19.503
		C116.425,55.1,115.991,52.642,114.077,52.693z"/>
	<path fill-rule="evenodd" clip-rule="evenodd" fill="#060606" d="M87.446,97.659c0.835,0.01,1.671,0.021,2.508,0.03
		c-0.083,2.524,0.653,4.498,2.788,6.205c4.046,3.24,6.999,7.507,9.95,11.733c2.472,3.69,4.956,7.374,6.924,11.371
		c0.741,1.848,1.097,3.812,1.725,5.69c0.488,2.065,3.375,0.64,3.891,2.66c-0.219,1.291-1.379,1.879-2.078,2.814
		c-0.538,0.657-1.061,1.361-1.772,1.807c-2.727,1.711-5.041,3.39-1.395,6.53c0.841,0.724,0.821,2.058,0.667,3.216
		c-0.246,1.094-0.766,1.893-2.037,1.864c-2.866-1.604-4.077-5.118-7.292-6.329c-0.699-0.572-0.833-1.329-0.723-2.168
		c2.506-2.994,1.849-5.851,0-8.973c-2.705-4.568-5.286-9.198-8.8-13.469c0.439,8.076,2.864,15.68,3.429,23.559
		c-0.793,3.333-0.873,6.682-0.237,10.036c0.293,1.543,0.589,3.051-0.368,4.472c-1.667,0.854-1.995-0.639-2.391-1.545
		c-0.919-2.108-1.741-4.384-1.329-6.665c0.875-4.844-0.073-9.484-1.572-13.944c-2.546-7.567-3.025-15.428-3.81-23.237
		c-0.243-2.426-0.705-3.064-2.972-2.153c-2.126,0.854-4.307,1.591-6.658,1.488c-3.774-0.031-7.542,0.309-11.334,0.043
		c-1.57-0.109-2.677-0.583-3.672-1.642c-1.146-0.697-2.384-0.861-3.7-0.709c-3.496,0.405-4.479,1.945-3.149,5.218
		c2.366,5.82,6.255,10.833,8.863,16.533c0.004,2.291-0.628,3.543-3.135,2.022c-0.726-0.441-0.364,0.716-0.851,0.751
		c-3.746-2.535-4.212-6.953-5.834-10.626c-1.132-2.562-2.126-5.155-3.671-7.503c-2.081-2.534-2.139-5.246-0.716-8.091
		c3.634-3.915,8.099-4.148,12.776-2.589c1.999,0.667,3.942,1.476,6.032,1.832c0.326,0.336,0.654,0.672,0.98,1.008
		c3.6,0.07,6.99-1.103,10.463-1.771c0.662-0.043,1.336,0.068,2.152-0.172c-1.4-0.346-2.266-1.028-2.062-2.512
		C80.995,101.138,82.864,97.715,87.446,97.659z"/>
	<path fill-rule="evenodd" clip-rule="evenodd" fill="#09070A" d="M101.206,143.4c0.217,0.565,0.433,1.131,0.648,1.699
		c2.731,3.185,0.33,7.309,2.137,10.492c1.054-1.487,2.105-3.384,4.364-3.965c2.531-0.18,3.261,1.556,3.324,3.512
		c0.067,2.085,0.87,3.493,2.68,4.405c1.717,5.895,2.333,12.019,3.67,18.525c1.355-5.102,1.079-9.702,0.31-14.346
		c-0.345-2.089-1.07-4.188-0.448-6.365c0.313-0.661,0.806-1.107,1.516-1.299c1.81,0.402,1.889,2.155,2.229,3.369
		c2.756,9.872,2.233,19.48-2.815,28.606c-0.342,0.618-0.832,1.165-1.31,1.692c-0.363,0.402-0.817,0.723-1.669,1.458
		c-1.215-5.653-0.621-12.049-7.638-13.927c-0.152-0.667-0.573-1.407-0.415-1.988c1.001-3.687-0.954-4.49-4.021-4.314
		c-3.146-1.34-6.406-1.025-9.645-0.577c-2.48,0.342-4.798,1.521-7.359,1.51c-1.252-0.086-2.486-0.839-3.76-0.103
		c-4.853-2.395-6.515-6.905-7.933-11.379c-1.854,5.497,1.143,9.229,5.447,12.421c-0.445,2.161-1.403,3.045-3.32,1.264
		c-0.828-0.771-1.664-1.448-2.859-1.467c-0.725-0.585-1.195-1.449-2.114-1.964c0.478,0.786,1.17,1.314,1.396,2.144
		c0.01,0.574,0.02,1.147,0.03,1.721c-3.022,7.111-7.553,13.364-11.412,19.999c-0.774,1.331-1.73,2.616-3.213,3.325
		c-0.58-0.433-0.815-1.044-0.894-1.735c2.322-6.596,6.454-12.284,9.43-18.565c1.026-2.167,1.494-3.986,1.05-6.434
		c-0.876-4.838,1.661-9.088,3.18-13.487c1.637-1.366,1.16-4.104,3.314-5.142c0.691-0.063,1.274,0.195,1.809,0.601
		c1.583,1.302,2.618,2.924,2.878,4.988c1.027,9.763,5.683,12.066,14.177,7.005c4.615-2.751,5.775-4.957,4.775-10.245
		c-0.518-2.741,0.205-5.674-1.085-8.422c-2.08,1.021-1.782,2.676-1.647,4.188c0.215,2.412,0.39,4.829,0.793,7.228
		c0.345,2.057,0.205,4.042-2.115,5.049c-0.89,0.176-1.69,0.074-2.259-0.735c-0.239-1.502,0.695-2.339,1.763-3.101
		c0.028-5.276-1.937-10.574,0.165-15.83C97.338,139.916,98.528,139.948,101.206,143.4z"/>
	<path fill-rule="evenodd" clip-rule="evenodd" fill="#060606" d="M119.407,156.058c-0.315,0.37-0.63,0.739-0.945,1.108
		c-1.411,0.833-1.429,3.812-4.12,2.67c-2.653,0.249-4.016-0.702-3.713-3.616c0.191-1.839,0.285-3.864-2.361-4.231
		c-0.24-0.199-0.314-0.391-0.222-0.577c0.09-0.181,0.177-0.271,0.263-0.271c1.142-0.107,1.51-0.867,1.586-1.875
		c3.483,1.427,1.975,4.887,3.091,7.67c3.052-4.777,7.196-8.343,10.572-12.593c4.56-5.74,4.625-5.688,0.322-11.522
		c-3.967-4.666-8.518-8.686-13.519-12.208c-2.284-1.651-4.782-3.043-6.548-5.332c-3.707-3.299-7.025-6.973-10.302-10.679
		c-1.587-1.793-4.72-5.177-3.136-7.862c8.954,9.674,21.115,18.93,30.628,27.988c3.034,2.888,5.341,6.327,7.855,9.629
		c2.479,3.252,2.271,6.133,0.005,9.336c-2.084,2.944-4.466,5.583-7.038,8.085C120.619,152.958,119.143,154.026,119.407,156.058z"/>
	<path fill-rule="evenodd" clip-rule="evenodd" fill="#060606" d="M33.722,114.915c0.976,2.355,1.952,4.708,3.143,7.581
		c-5.424,0.448-9.66-2.144-13.468-4.662C5.197,105.8,0.969,91.206,7.349,71.055c0.552-1.748,1.663-3.314,3.171-4.494
		c0.825-0.308,1.235,0.173,1.56,0.817c-0.403,4.834-2.85,9.15-3.343,14.021c-0.957,9.446,0.706,17.867,7.947,24.602
		c2.714,2.524,5.158,5.331,7.955,7.769c0.407,0.344,0.982,0.686,1.057,1.173c0.35,2.317,1.425,0.373,2.153,0.406
		c1.734-0.031,2.609,1.389,3.999,2.392c0.053-0.991-0.445-1.84-0.184-2.692C32.27,113.768,32.94,113.46,33.722,114.915z"/>
	<path fill-rule="evenodd" clip-rule="evenodd" fill="#06070D" d="M58.954,195.958c0.025,0.63,0.049,1.261,0.073,1.891
		c-1.955,2.861-3.442,2.166-4.295-0.724c-2.154-7.307-1.433-14.668-0.288-22.048c1.31-8.439,5.586-16.193,5.488-24.981
		c-0.041-3.729-0.417-7.377-0.936-11.041c1.322-0.913,2.301-0.147,3.274,0.661c1.427,1.539,2.051,3.416,2.119,5.465
		c0.234,6.989,0.301,13.878-2.34,20.645c-3.235,8.285-5.137,16.934-4.447,25.949C57.717,193.257,57.125,195.014,58.954,195.958z"/>
	<path fill-rule="evenodd" clip-rule="evenodd" fill="#0D0D0E" d="M33.722,114.915c-0.494-0.124-0.989-0.918-1.478,0.007
		c-2.274-0.171-1.589-1.668-0.937-2.636c0.999-1.478,2.462-2.275,4.395-1.538c2.078,0.79,3.795,2.546,6.239,2.328
		c0.52-0.139,1.048-0.234,1.575-0.155c1.65-0.984,0.299-2.515,0.666-3.754c0.839-2.826,0.638-6.253,4.512-7.149
		c0.296,0.01,0.592,0.02,0.889,0.029c1.032,2.828-0.839,5.262-1.079,7.917c-0.856,2.245,0.151,4.461,0.103,6.694
		c0.248,1.776,0.167,3.212-2.32,2.558c-3.168-0.833-6.382-1.438-9.148-3.451C36.257,115.124,35.301,113.315,33.722,114.915z"/>
	<path fill-rule="evenodd" clip-rule="evenodd" fill="#060606" d="M61.637,139.903c-0.879-0.282-1.76-0.565-2.64-0.848
		c-1.421-1.367-0.122-2.789-0.084-4.187c-0.188-0.94-0.377-1.879-0.546-2.718c1.502-1.186,2.355,5.556,4.025,0.133
		c3.044,0.393,3.632,3.297,4.896,5.238c2.088,3.206,4.1,6.49,6.039,9.803c0.659,1.847,2.796,3.168,1.995,5.54
		c-1.457,1.417-0.556,4.046-2.639,5.141c-0.538-7.525-6.441-12.12-9.887-18.056C62.572,139.563,62.037,139.69,61.637,139.903z"/>
	<path fill-rule="evenodd" clip-rule="evenodd" fill="#056598" d="M91.575,100.351c2.62,3.663,5.593,6.94,9.243,10.722
		c1.252,1.298,2.863,2.269,3.936,3.788c-0.666,0.979-1.64,1.092-2.7,0.959c-4.221-4.611-7.614-9.966-12.778-13.737
		c-2.115-1.545,0.03-2.979,0.679-4.393C90.253,97.686,91.255,100.148,91.575,100.351z"/>
	<path fill-rule="evenodd" clip-rule="evenodd" fill="#222222" d="M3.013,59.071c-0.04-1.817-0.679-3.706,0.649-5.358
		c1.661-0.812,1.464-2.8,2.559-4.003c2.002-2.202,3.708-2.009,4.587,0.777c0.599,1.901,1.318,3.763,1.872,5.679
		c0.231,0.797,0.856,1.394,1.136,2.168c0.248,0.887,0.199,1.724-0.413,2.467c-0.652,0.28-1.282,0.327-1.859-0.175
		c-1.238-2.306-2.477-4.61-3.722-6.93C5.233,54.895,6.562,59.114,3.013,59.071z"/>
	<path fill-rule="evenodd" clip-rule="evenodd" fill="#2B2B2B" d="M11.544,60.627c0.606-0.008,1.213-0.014,1.819-0.021
		c2.308,0.043,2.128,1.574,1.568,2.974c-0.66,1.657-1.028,3.665-3.242,4.159c-0.39-0.394-0.779-0.785-1.17-1.178
		c0.584-0.939,1.143-1.896,1.759-2.814c1-1.49,1.362-2.589-1.167-2.149c-0.01,0.002-0.132-0.295-0.083-0.377
		C11.166,61,11.368,60.821,11.544,60.627z"/>
	<path fill-rule="evenodd" clip-rule="evenodd" fill="#0D0D0E" d="M48.606,116.658c-1.438-2.221-0.924-4.643-0.722-7.031
		c0.403-0.541,0.709-1.301,1.61-0.705c-1.709,2.587,0.14,5.213-0.087,7.816C49.142,116.691,48.875,116.665,48.606,116.658z"/>
	<path fill-rule="evenodd" clip-rule="evenodd" fill="#EEC9A4" d="M80.519,172.827c-7.167-1.683-9.391-8.982-4.38-17.152
		c-0.542,7.188,2.928,11.763,6.866,16.109C82.176,172.132,81.348,172.479,80.519,172.827z"/>
	<path fill-rule="evenodd" clip-rule="evenodd" fill="#F0F1F1" d="M86.765,171.887c5.474-3.822,11.721-2.618,17.712-2.414
		c1.33,0.045-0.822,0.778-0.708,1.481c-4.628,0.426-9.257,0.84-13.884,1.291C88.807,172.35,87.694,172.997,86.765,171.887z"/>
	<path fill-rule="evenodd" clip-rule="evenodd" fill="#C6B5A0" d="M73.623,172.804c-2.631-1.292-2.631-1.292-2.34-5.078
		c1.639,1.43,2.831,2.837,3.058,4.898C74.084,172.616,73.845,172.677,73.623,172.804z"/>
	<path fill-rule="evenodd" clip-rule="evenodd" fill="#FACA98" d="M28.801,48.61c0.854-0.616,1.709-1.231,2.564-1.847
		c1.734-0.263,1.351,1.052,1.356,1.938c0.008,1.115-0.449,2.309,0.826,3.064c0.463,0.299,0.867,0.677,1.318,0.992
		c3.856-3.36,6.302-7.992,10.243-11.303c1.419-1.192,0.021-1.911-0.959-2.505c-1.971-1.194-4.256-1.178-6.974-1.294
		c3.663-4.264,7.5-6.973,12.829-7.952c-0.265,2.59-1.888,5.261,0.48,7.493c1.312-0.551,0.537-1.956,1.339-2.6
		c0.856-0.045,1.452,0.405,1.96,1.025c2.408,0.786,3.961-1.168,5.912-1.846c2.691-0.438,3.419,1.277,3.768,3.415
		c0.186,0.957-0.056,2.002,0.571,2.877c-0.585,8.23-4.404-0.545-6.614,1.909c0.917,2.271,3.328,3.186,5.746,3.985
		c3.518,1.165,7.33,1.236,10.741,2.829c7.57,3.534,9.021,12.063,2.986,17.559c-4.075,3.71-7.879,3.512-11.887-0.622
		c-0.968-1.83-0.28-3.396,0.772-4.911c0.01-0.014-0.191-0.231-0.231-0.214c-0.248,0.11-0.483,0.25-0.744,0.381
		c-1.322,0.769-1.968,2.038-2.627,3.316c-0.417,0.808-1.086,1.311-2.072,1.206c-1.186-0.125-1.736-0.935-1.963-1.969
		c-0.524-2.397-0.319-4.842-0.273-7.262c0.042-2.223-0.509-4.126-1.74-6.018c-2.651-4.075-5.951-4.65-10.008-1.489
		c-1.058,1.85-2.131,3.683-3.807,5.062c-2.601,3.462-2.743,9.925-0.316,13.213c1.035,1.401,2.479,1.824,4.107,1.913
		c1.428,0.08,2.868-0.036,4.28,0.256c0.865,0.179,1.718,0.493,1.941,1.45c0.234,1.007-0.541,1.51-1.245,2.035
		c-1.563,1.163-3.833,1.384-4.669,3.506c-0.024,0.398-0.044,0.791-0.042,1.186c-0.096,1.974,2.083,3.695,0.649,5.812
		c-1.152,1.178-2.304,2.356-3.456,3.534c-5.289-1.381-7.085-4.768-6.493-10.136c0.598-5.422-2.234-10.216-3.739-15.239
		c-0.209-0.698-1.064-0.895-1.681-1.246c-3.081-3.078-4.771-6.579-3.338-11.025C28.472,48.928,28.636,48.768,28.801,48.61z"/>
	<path fill-rule="evenodd" clip-rule="evenodd" fill="#FACA98" d="M79.574,107.865c-3.671,0.642-7.129,3.562-11.095,1.033
		c2.53-4.514-0.485-7.896-2.807-10.943c-2.698-3.544-6.453-6.065-11.202-6.488c-0.849-0.077-1.692-0.298-2.523-0.507
		c-1.947-0.489-5.177-0.358-4.746-2.901c0.395-2.335,3.272-3.079,5.998-3.02c3.737,0.082,6.67,1.997,9.264,4.092
		c3.702,2.992,5.331,0.836,6.745-2.061c1.813-3.716,3.232-7.624,5.018-11.353c2.653-5.546,6.368-10.16,12.036-12.962
		c1.92-0.95,4.267-1.658,5.49,0.06c1.167,1.639-0.708,3.466-2.003,4.705c-4.365,4.177-8.339,8.653-11.425,13.872
		c-0.549,0.927-1.568,1.738-0.895,3.048c4.497-2.872,6.25-2.236,7.477,2.714c0.169,0.683,0.151,1.271,1.115,1.507
		c5.473,1.342,6.033,2.977,2.621,7.266c-0.437,0.548-0.799,1.154-1.195,1.733c-3.484,1.344-5.792,4.007-7.82,6.983
		C78.488,105.698,80.194,106.8,79.574,107.865z"/>
	<path fill-rule="evenodd" clip-rule="evenodd" fill="#DADADA" d="M9.313,37.503c9.319-16.059,20.896-24.942,38.146-23.257
		c5.275,0.515,6.377-1.035,4.482-6.079c-0.544-1.445-1.558-2.713-2.319-3.999c4.105,0.373,6.253,2.375,7.414,7.438
		c0.491,2.139,0.185,3.1,3.231,1.614c4.995-2.436,10.292-5.723,16.792-2.894c-3.06,0.589-5.825,1.02-8.536,1.674
		c-2.023,0.488-2.871,1.347-2.111,3.945c3.346,11.446,12.16,16.118,22.611,18.681c5.272,1.293,10.724,1.801,15.957,3.399
		c5.895,1.802,8.406,6.63,10.585,11.665c0.531,1.228-0.904,0.248-1.386,0.436c-1.524-1.753-4.098-1.87-5.365-3.92
		c-1.419,1.477-0.337,2.302,0.195,3.213c-0.277,1.86-1.464,0.951-2.002,0.445c-7.718-7.259-16.696-12.172-26.964-14.76
		c-0.554-0.14-0.918-0.651-1.293-1.081c-2.178-0.677-4.546-1.026-6.464-2.147c-1.186-0.695-5.672,0.504-2.917-3.723
		c0.594-0.911-1.086-1.553-1.971-1.771c-1.644-0.405-3.354-0.535-5.193-0.802c2.417-3.829-0.168-3.334-2.715-3.02
		c-1.386,0.17-2.451,1.663-4.029,0.932c-0.199-0.085-0.4-0.17-0.602-0.252c-4.707-3.736-10.108-3.157-15.497-2.416
		c-2.537,0.35-4.924,1.375-7.398,2.023c-7.014,1.859-12.21,6.412-17.167,11.401C13.305,35.753,12.16,38.159,9.313,37.503z"/>
	<path fill-rule="evenodd" clip-rule="evenodd" fill="#D9DADA" d="M11.662,56.876c-0.333-2.883-2.886-5.139-1.691-8.948
		c-3.294,1.815-4.387,4.175-5.381,6.632c-0.02,0.05,0.25,1.512-0.597,0.361c-0.231-0.313-0.226-0.8-0.33-1.208
		c0.944-4.502,1.161-9.266,4.623-12.865c6.898-8.492,14.482-16.057,25.578-18.869c4.187-1.395,8.444-2.087,12.886-1.898
		c3.418,0.144,6.332,1.203,8.81,3.526l-0.098-0.113c-1.875,2.814-4.104,4.806-7.881,4.643c-1.605-0.069-3.256,0.892-4.886,1.384
		c-4.24-0.066-7.048,2.886-9.918,5.21c-7.218,5.846-14.504,11.737-18.115,20.796C14.193,56.703,13.493,58.295,11.662,56.876z"/>
	<path fill-rule="evenodd" clip-rule="evenodd" fill="#DADADA" d="M11.69,67.738c0.719-2.34,4.625-3.931,1.674-7.133
		c-0.016-0.85-0.033-1.702-0.05-2.555C17.53,45.95,26.83,38.356,36.895,31.436c0.748-0.514,1.467-0.89,2.319-0.253
		c-3.324,3.202-4.712,7.887-8.532,10.787c-2.026,1.536-2.408,4.093-1.882,6.641c0.001,0,0.027-0.101,0.027-0.101
		c-0.815,1.373-2.054,2.349-3.186,3.427c-2.976,3.228-4.632,7.061-5.262,11.376c-1.353,6.07-2.877,12.103-3.313,18.333
		c-0.026,3.109-0.019,6.215-0.001,9.32c0.416,6.658,2.958,12.57,6.335,18.208c1.046,1.747,2.756,3.451,1.044,5.734
		c-4.191-3.228-8.003-6.93-11.202-11.066C5.309,93.583,6.338,82.278,10.238,70.83C10.604,69.759,11.2,68.766,11.69,67.738z"/>
	<path fill-rule="evenodd" clip-rule="evenodd" fill="#FACA98" d="M32.161,59.952c1.37-1.112,2.3-0.096,2.51,0.94
		c1.23,6.077,4.583,11.723,3.632,18.253c-0.394,2.705-0.196,5.168,3.578,5.302c1.044,0.037,1.221,1.433,1.682,2.287
		c-0.771,2.245,0.41,3.422,2.229,4.447c2.455,1.383,5.21,1.5,7.844,2.101c4.286,0.978,8.013,2.745,10.885,6.771
		c-5.048,1.337-9.587,0.365-14.123-0.667c-2.509-0.965-3.72,0.713-4.768,2.462c-2.271,3.789-5.528,5.244-9.838,4.445
		c-6.689-3.69-7.547-11.118-2.027-16.328c0.585-0.553,3.069-0.453,1.506-2.474c-0.608-0.655-0.912-1.391-0.719-2.283
		c1.687-6.544,0.953-12.913-1.216-19.225C32.673,64.052,31.089,62.242,32.161,59.952z"/>
	<path fill-rule="evenodd" clip-rule="evenodd" fill="#FACA98" d="M47.017,83.2c0.218-2.351-2.771-3.836-1.729-6.408
		c1.248-0.208,2.49-0.479,3.766-0.264c0.392,0.19,0.688,0.497,0.792,0.913c0.375,1.485,1.535,2.497,2.734,1.706
		c1.76-1.16-0.868-1.872-0.777-3.004c1.217-2.535,4.001-4.03,4.455-6.619c0.413-0.864-0.575-0.551-0.004-0.481
		c-1.78,5.257-5.366,7.8-10.976,7.297c-0.874-2.505,1.479-2.19,2.59-2.941c1.22-0.824,2.471-1.6,4.869-3.146
		c-6.666,0.021-12.971,0.515-13.422-7.328c-0.2-3.46-1.663-7.59,2.688-9.955c0.769,1.571-0.016,3.048-0.319,4.533
		c-1.539,7.539,2.291,11.327,9.955,9.797c5.617-2.686,7.196-8.07,4.188-14.33c-0.293-0.281-0.541-0.598-0.761-0.937
		c-0.76-1.453-0.888-3.58-3.166-3.535c-2.035,0.039-2.024,2.133-2.901,3.33c-1.569,0.922-1.753-0.618-2.401-1.341
		c-0.368-0.545-0.849-1.001-1.261-1.516c-0.338-1.911,0.19-3.034,2.401-3.01c1.842,0.019,3.73,0.304,5.51-0.554
		c1.298-0.626,1.362,0.447,2.006,1.232c3.288,4.015,4.342,8.521,3.722,13.549c-0.052,0.424-0.07,0.871,0,1.29
		c0.192,1.156-0.648,2.896,1.212,3.188c1.436,0.227,1.78-1.281,2.076-2.323c0.443-1.565,1.146-2.616,2.936-2.505
		c0.283,1.591-0.485,2.655-1.741,3.474c-0.434,0.73-0.717,1.628-1.321,2.166c-5.201,4.644-7.187,10.281-5.122,17.576
		C53.39,82.228,50.2,82.669,47.017,83.2z"/>
	<path fill-rule="evenodd" clip-rule="evenodd" fill="#D8D9D9" d="M108.2,80.485c-0.834,1.542-0.402,3.647-2.452,5.381
		c-0.055-3.346-0.607-6.062-1.599-8.668c-0.356-0.938-0.778-1.965-1.986-1.989c-1.351-0.026-1.451,1.19-1.703,2.1
		c-1.096,3.979-3.237,7.298-6.23,10.092c-0.733,0.685-1.591,1.504-2.597,0.637c-0.896-0.775-0.097-1.57,0.39-2.216
		c3.454-4.591,5.476-9.728,5.646-15.479c0.053-1.817,1.266-2.511,2.395-3.226c1.966-1.245,3.682-2.692,5.116-4.868
		c1.846,2.094,1.819,4.816,3.014,6.973C109.869,72.976,109.848,76.73,108.2,80.485z"/>
	<path fill-rule="evenodd" clip-rule="evenodd" fill="#D7D9D8" d="M108.167,51.87c6.892,7.602,7.767,16.183,4.042,25.45
		c-0.496,1.234-0.67,2.878-2.424,3.245c-1.734-4.068-0.436-8.304-0.678-12.454c-2.169-5.823-3.334-11.849-3.655-18.048
		C106.974,49.739,107.562,50.817,108.167,51.87z"/>
	<path fill-rule="evenodd" clip-rule="evenodd" fill="#D9DADA" d="M64.326,78.549c-0.47,0.223-0.594,0.267-0.704,0.336
		c-1.416,0.903-1.524,4.104-3.731,3.091c-1.952-0.896-1.522-3.486-1.266-5.461c0.162-1.252,0.575-2.489,0.99-3.692
		c1.181-3.421,2.742-5.575,6.668-2.659c1.773,1.318,4.155,1.635,6.625,1.447c-1.687,3.996-3.21,7.605-4.774,11.31
		C66.283,81.879,65.628,80.035,64.326,78.549z"/>
	<path fill-rule="evenodd" clip-rule="evenodd" fill="#D8D8D8" d="M100.222,45.919c-4.252,0.976-8.043,0.625-11.855-2.128
		c-4.27-3.084-9.819-3.941-14.158-7.112c-1.333-0.973-2.877-1.693-3.71-3.542c2.598,0.229,4.636,1.959,7.113,1.811
		c7.336,0.853,14.102,3.313,20.229,7.415C99.004,43.141,100.875,43.779,100.222,45.919z"/>
	<path fill-rule="evenodd" clip-rule="evenodd" fill="#EFEEEB" d="M49.494,108.923c-0.537,0.234-1.074,0.469-1.61,0.705
		c0.595-2.52,0.113-5.282,1.698-7.58c3.371,1.298,7.026,2.05,10.377,1.032c4.862-1.478,6.671,0.637,7.539,4.811
		c-1.666,1.167-3.051,1.246-4.989,0C58.071,105.035,53.629,105.96,49.494,108.923z"/>
	<path fill-rule="evenodd" clip-rule="evenodd" fill="#FACA98" d="M92.423,52.889c0.257-2.643,1.96-3.004,4.209-2.874
		c3.082,0.18,6.037,0.412,7.274,3.917c0.895,2.535,0.825,5.012-0.521,7.396c-0.689,1.222-1.2,2.908-2.869,2.774
		c-1.862-0.148-1.129-2.202-1.792-3.285c0.346-2.583-1.132-4.818-1.395-7.303c-0.165-1.575-1.124,0.118-1.679-0.165
		C94.553,53.354,93.431,53.515,92.423,52.889z"/>
	<path fill-rule="evenodd" clip-rule="evenodd" fill="#202021" d="M100.222,45.919c-3.789-5.194-9.761-6.572-15.292-8.679
		c-2.385-0.909-4.876-1.538-7.318-2.292c0.38-0.307,0.759-0.614,1.138-0.922c11.685,1.694,21.047,7.725,29.366,15.711
		c0.088,0.086,0.273,0.2,0.329,0.166c0.208-0.131,0.379-0.316,0.565-0.481c0.942,0.658,1.792,1.752,1.408,2.669
		c-0.546,1.303-1.351-1.19-2.25-0.22c-0.904-0.603-1.81-1.205-2.714-1.808C104.084,48.207,102.069,47.169,100.222,45.919z"/>
	<path fill-rule="evenodd" clip-rule="evenodd" fill="#2B2C2C" d="M39.214,31.183C29.268,36.645,21,43.824,15.709,54.074
		c-0.708,1.373-1.593,2.654-2.396,3.977c-0.78-0.068-1.493-0.233-1.652-1.175c2.21,0.013,2.006-2.033,2.631-3.248
		c5.546-10.776,14.442-18.09,24.648-24.068c1.2-0.703,2.489-1.663,3.754-0.039C41.556,30.12,40.775,31.468,39.214,31.183z"/>
	<path fill-rule="evenodd" clip-rule="evenodd" fill="#EFC895" d="M91.506,81.276c-0.514,1.012-0.945,2.076-1.562,3.019
		c-0.568,0.866-0.526,2.368-2.159,2.262c-1.999-0.13-1.028-1.735-1.207-2.625c-0.528-2.625-2.398-3.556-4.797-3.946
		c0.635-1.792,1.762-2.826,3.054-3.723C91.045,75.678,91.729,76.192,91.506,81.276z"/>
	<path fill-rule="evenodd" clip-rule="evenodd" fill="#FACA98" d="M91.118,55.224c-7.638,2.305-9.04-5.23-13.513-7.759
		c-0.684-0.387-0.62-1.152-0.034-1.834c0.846-0.983,1.484-0.313,2.188,0.145C83.847,48.426,87.67,51.389,91.118,55.224z"/>
	<path fill-rule="evenodd" clip-rule="evenodd" fill="#D5D4D7" d="M53.782,35.622c-0.839,0.013-1.537-0.246-1.959-1.026
		c0.613-4.907,3.302-8.329,7.846-9.957c0.056,1.387-1.934,1.617-1.74,3.123c2.39,1.112,4.954-0.906,7.757,0.522
		C60.929,29.888,56.401,31.291,53.782,35.622z"/>
	<path fill-rule="evenodd" clip-rule="evenodd" fill="#CBCECA" d="M34.865,52.758c-0.668-0.041-1.338-0.082-2.006-0.124
		c-1.258-2.225-0.075-4.011,1.049-5.807c0.273-1.313,3.638-3.187-1.014-3.616c2.853-2.641,5.758-3.893,9.756-2.706
		C40.239,44.82,33.939,46.615,34.865,52.758z"/>
	<path fill-rule="evenodd" clip-rule="evenodd" fill="#FACA98" d="M91.506,81.276c0.043-4.686-3.955-3.999-6.671-5.015
		c1.342-2.739,3.533-1.185,5.231-0.796c2.511,0.575,3.237-0.814,2.211-2.331c-2.34-3.454,0.528-4.926,2.273-8.156
		C94.801,71.448,94.355,76.585,91.506,81.276z"/>
	<path fill-rule="evenodd" clip-rule="evenodd" fill="#CFD3D0" d="M48.694,102.019c-3.953,3.759-4.184,8.315-2.658,13.44
		c-1.752,0.087-1.848-1.554-2.727-2.159c-2.403-1.355-3.646-3.263-2.919-6.113c1.966-2.11,4.622-3.56,5.882-6.38
		c0.346-0.773,1.3-1.661,2.168-0.211C48.525,101.07,48.609,101.545,48.694,102.019z"/>
	<path fill-rule="evenodd" clip-rule="evenodd" fill="#F9FBF9" d="M70.192,38.198c1.744,1.454,3.497,2.897,5.229,4.363
		c0.755,0.64,1.593,1.229,0.873,2.469c-0.639,1.098-1.526,1.115-2.565,0.863c-1.781-0.432-3.563-0.854-5.686-1.363
		c0.535-1.841,3.116-3.32,1.315-5.553C69.243,38.297,69.372,37.878,70.192,38.198z"/>
	<path fill-rule="evenodd" clip-rule="evenodd" fill="#34241C" d="M48.44,100.596c-3.16,1.465-3.75,5.941-7.657,6.531
		c-0.317,0.301-0.698,0.44-1.133,0.447c-1.43-0.479-3.539,0.322-3.959-2.079c4.225,0.411,7.49-0.741,9.404-4.966
		c1.059-2.338,3.098-2.774,5.303-1.144C49.596,99.546,48.783,99.69,48.44,100.596z"/>
	<path fill-rule="evenodd" clip-rule="evenodd" fill="#D3D4D8" d="M81.286,42.568c3.88,0.851,6.785,2.62,9.729,4.29
		c1.323,0.75,1.847,1.673,0.691,3.054c-1.349,1.612-1.927,0.096-2.499-0.654C87.17,46.583,84.077,45.182,81.286,42.568z"/>
	<path fill-rule="evenodd" clip-rule="evenodd" fill="#281910" d="M95.061,52.825c1.134-0.863,2.269-1.784,3.785-1.718
		c0.479,0.021,1.138,0.323,1.367,0.704c0.367,0.613-0.116,0.966-0.763,1.091c-2.046,0.392-1.485,1.141-0.569,2.446
		c1.201,1.708,1.331,3.688-0.156,5.47c-0.355-0.368-0.71-0.735-1.066-1.103c-0.639-1.416-1.576-2.587-2.772-3.59
		C93.54,54.995,93.383,53.839,95.061,52.825z"/>
	<path fill-rule="evenodd" clip-rule="evenodd" fill="#D6BE9F" d="M64.527,81.486c1.933,2.418,4.322,4.396,1.884,7.505
		C61.413,86.491,61.358,86.294,64.527,81.486z"/>
	<path fill-rule="evenodd" clip-rule="evenodd" fill="#D9DADA" d="M94.257,62.004c-3.837-5.521-7.621-1.337-12.06-0.378
		c1.105-1.903,0.316-4.137,3.087-4.334C89.51,56.993,93.359,58.762,94.257,62.004z"/>
	<path fill-rule="evenodd" clip-rule="evenodd" fill="#1E1E1E" d="M109.107,68.11c1.431,4.086,0.488,8.301,0.678,12.454
		c-0.58,1.02-1.055-0.073-1.585-0.079c-0.001-3.754-0.004-7.509-0.007-11.263C108.498,68.853,108.802,68.482,109.107,68.11z"/>
	<path fill-rule="evenodd" clip-rule="evenodd" fill="#FACA98" d="M62.466,38.306c0.277-2.245-0.606-3.779-2.772-4.528
		c2.149-2.385,4.273-3.477,6.305,0.124C65.897,36.232,64.723,37.703,62.466,38.306z"/>
	<path fill-rule="evenodd" clip-rule="evenodd" fill="#FACA98" d="M95.061,52.825c-0.691,1.214-1.452,2.218,0.678,3.063
		c1.395,0.553,3.04,1.681,1.92,3.827c-2.466-1.723-4.508-3.77-5.236-6.826C93.294,52.479,94.167,52.224,95.061,52.825z"/>
	<path fill-rule="evenodd" clip-rule="evenodd" fill="#393324" d="M33.908,46.827c-0.35,1.937-0.7,3.873-1.05,5.807
		c-1.988-0.186-1.52-1.576-1.437-2.836c0.067-1.007,1.317-2.054-0.056-3.034C32.249,45.327,33.064,46.675,33.908,46.827z"/>
	<path fill-rule="evenodd" clip-rule="evenodd" fill="#0F0909" d="M63.457,63.312c0.58-1.158,1.161-2.315,1.741-3.474
		c0.992-0.269,1.771-1.334,3.441-0.779c-1.442,2.254-4.103,3.722-3.633,6.672C64.489,64.924,63.973,64.118,63.457,63.312z"/>
	<path fill-rule="evenodd" clip-rule="evenodd" fill="#3B291B" d="M62.466,38.306c1.178-1.469,2.354-2.936,3.533-4.404
		c0.539,0.515,1.077,1.03,1.615,1.546c-0.16,1.044-1.627,1.025-1.725,2.12c-0.619,0.834-1.237,1.668-1.856,2.501
		C62.613,40.278,61.982,39.787,62.466,38.306z"/>
	<path fill-rule="evenodd" clip-rule="evenodd" fill="#F9FBF9" d="M65.889,37.567c-0.947-1.945,0.72-1.764,1.725-2.12
		c0.859,0.917,1.718,1.834,2.578,2.751c-0.277,0.259-0.556,0.52-0.833,0.779C68.248,38.396,67.499,36.923,65.889,37.567z"/>
	<path fill-rule="evenodd" clip-rule="evenodd" fill="#2C2C2C" d="M33.256,22.775C22.633,25.624,15.967,33.939,8.285,40.848
		c-2.02-1.841,0.064-2.42,1.028-3.345c3.742-1.969,6.045-5.557,9.187-8.214c3.875-3.281,7.958-6.037,12.898-7.378
		C31.883,22.486,32.858,22.014,33.256,22.775z"/>
	<path fill-rule="evenodd" clip-rule="evenodd" fill="#026598" d="M94.195,159.042c-0.082,1.125-0.638,1.952-1.592,2.529
		c-2.585,1.841-4.757,1.466-6.622-1.128c-1.254-1.744-2.757-3.316-3.449-5.412c-1.946-3.459-2.129-7.643-4.497-10.937
		c-4.846-8.795-8.696-18.088-13.628-26.842c-2-3.549-0.932-4.872,3.201-4.614c2.719,0.171,5.273-0.911,7.951-1.069
		c2.063,0.174,3.938-0.406,5.822-1.216c1.693-0.729,3.519-1.146,5.423-1.742c-0.656,11.353,1.982,22.161,4.977,32.865
		c1.092,3.904-0.218,7.701,0.476,11.489C92.641,155.061,92.885,157.23,94.195,159.042z"/>
	<path fill-rule="evenodd" clip-rule="evenodd" fill="#046597" d="M124.514,132.154c1.019,1.182,2.121,2.301,3.035,3.557
		c1.39,1.911,1.639,3.942-0.014,5.86c-4.646,5.389-9.314,10.76-14.012,16.106c-0.321,0.366-0.954,0.46-1.768,0.828
		c-0.38-3.335,0.06-6.565-1.861-9.238c-0.215-0.808-0.162-1.995-0.687-2.365c-5.521-3.898-1.485-5.637,1.608-7.679
		c0.692-0.456,1.202-1.188,1.796-1.794c1.909-1.496,4.729-0.501,6.492-2.388c0.75-0.978,1.369-2.069,2.43-2.773
		C122.507,131.718,123.491,131.354,124.514,132.154z"/>
	<path fill-rule="evenodd" clip-rule="evenodd" fill="#056598" d="M72.693,147.716c-3.954-4.797-6.1-10.8-10.301-15.432
		c-3.223-4.799-6.229-9.728-8.737-14.946c-0.972-2.021-2.763-4.333-1.155-6.311c1.614-1.983,4.415-2.263,7.05-1.683
		c0.682,0.149,1.367,0.287,2.049,0.431c0.51,5.71,3.444,10.505,5.815,15.525c2.808,5.946,6.726,11.392,8.173,17.966
		C75.157,145.099,76.684,148.21,72.693,147.716z"/>
	<path fill-rule="evenodd" clip-rule="evenodd" fill="#F6F9F7" d="M101.206,143.4c-2.207-2.824-4.519-1.79-6.846-0.188
		c-1.702-8.24-3.214-16.508-3.982-25.434c6.456,6.166,9.993,13.66,13.654,21.03C105.283,141.327,101.873,141.677,101.206,143.4z"/>
	<path fill-rule="evenodd" clip-rule="evenodd" fill="#0B638F" d="M89.497,107.279c4.522,1.157,5.709,5.487,8.233,8.327
		c4.572,5.146,7.453,11.458,10.678,17.488c1.387,2.595,0.625,4.69-2.6,5.611c-2.907-9.139-8.27-16.843-14.219-24.189
		C89.914,112.448,88.682,110.307,89.497,107.279z"/>
	<path fill-rule="evenodd" clip-rule="evenodd" fill="#060606" d="M74.578,142.296c-3.84-7.753-7.657-15.516-11.532-23.25
		c-1.481-2.956-2.418-5.955-1.446-9.272c2.134,3.555,5.765,1.061,8.613,1.955c1.391,0.438,3.53-0.198,5.344-0.161
		c-2.52,1.018-5.145,1.699-7.853,1.706c-3.062,0.009-4.213,0.303-2.214,3.748c5.075,8.743,9.59,17.803,13.357,27.207
		c0.995,1.66,2.541,4.034,0.359,4.988c-2.007,0.876-3.068-1.813-3.753-3.666C75.064,144.501,74.997,143.348,74.578,142.296z"/>
	<path fill-rule="evenodd" clip-rule="evenodd" fill="#04669C" d="M102.053,115.819c0.647-1.031,1.743-0.801,2.7-0.959
		c1.992,1.699,3.984,3.398,5.977,5.097c2.933,1.861,4.007,5.501,7.502,7.124c1.872,0.869-0.019,3.292-1.351,4.566
		c-1.677,1.604-3.559,1.89-5.252,0.017c-1.22-1.351-1.698-3.218-2.931-4.586C106.483,123.325,104.269,119.572,102.053,115.819z"/>
	<path fill-rule="evenodd" clip-rule="evenodd" fill="#056598" d="M108.698,127.077c0.999,0.97,2.111,1.848,2.973,2.925
		c2.137,2.676,3.853,2.632,5.748-0.301c0.978-1.516,1.13-2.668-1.235-2.709c-1.841-0.034-4.194,0.658-2.756-2.941
		c0.346-0.866-1.733-2.702-2.698-4.092c5.387,3.172,9.962,7.26,13.785,12.196c-0.875,0.288-1.751,0.577-2.626,0.865
		c-1.899-1.087-3.451,0.22-5.151,0.689c-2.069,0.574-4.28,1.718-6.068-0.645C110.011,131.068,109.354,129.074,108.698,127.077z"/>
	<path fill-rule="evenodd" clip-rule="evenodd" fill="#E8C5A2" d="M108.309,151.142c-0.099,0.279-0.112,0.562-0.041,0.847
		c-1.604,1.937-3.209,3.873-5.052,6.095c-1.586-4.535-0.536-8.863-1.362-12.985c2.167-1.763,2.316,0.918,3.24,1.605
		C106.568,147.801,107.65,149.363,108.309,151.142z"/>
	<path fill-rule="evenodd" clip-rule="evenodd" fill="#060606" d="M110.669,133.064c2.325,1.71,4.278,0.226,6.382-0.631
		c1.624-0.662,3.59-2.498,4.837,0.586c-0.583,0.841-1.167,1.683-1.752,2.525c-1.709-1.833-3.489,1.042-5.209-0.078
		C114.103,133.61,110.156,137.288,110.669,133.064z"/>
	<path fill-rule="evenodd" clip-rule="evenodd" fill="#056598" d="M114.926,135.467c1.743-0.423,3.513-2.568,5.209,0.079
		c-1.868,3.183-5.037,1.169-7.524,1.883C113.383,136.775,114.155,136.121,114.926,135.467z"/>
	<path fill-rule="evenodd" clip-rule="evenodd" fill="#BCB8C6" d="M83.033,104.418c3.632-2.878,3.632-2.878,5.606,0
		C86.908,104.418,85.344,104.418,83.033,104.418z"/>
	<path fill-rule="evenodd" clip-rule="evenodd" fill="#0F0909" d="M79.574,107.865c-0.901-1.091-1.446-2.175,0.051-3.224
		c0.451,3.678,3.157-0.867,4.026,1.431C82.879,107.547,81.214,107.681,79.574,107.865z"/>
	<path fill-rule="evenodd" clip-rule="evenodd" fill="#046597" d="M61.637,139.903c0.333-0.592-0.281-3.188,1.268-1.297
		c3.749,4.579,6.917,9.635,10.272,14.529c1.166,1.704-0.856,3.189-0.494,4.87c-1.138,5.219-5.387,10.041-1.995,15.871
		c0.203,0.351-0.409,1.266-0.769,1.838c-3.941,6.286-6.542,13.324-10.863,19.399c-0.144,0.203-0.073,0.56-0.103,0.844
		c-0.511,0.467-1.087,1.381-1.521,1.318c-1.667-0.241-1.055-1.761-1.112-2.751c-0.565-9.854,0.906-19.374,4.401-28.645
		C63.926,157.382,64.78,148.683,61.637,139.903z"/>
	<path fill-rule="evenodd" clip-rule="evenodd" fill="#F0CAA2" d="M94.25,162.321c2.005-0.521,2.581-2.381,1.923-3.678
		c-1.36-2.679-0.203-5.678-1.545-8.243c-1.296-2.474,1.283-3.839,1.715-5.828c0.065-0.302,1.401-0.654,1.923-0.438
		c0.501,0.207,1.037,1.145,0.998,1.722c-0.303,4.479,0.883,8.826,1.058,13.257c0.057,1.448-0.49,2.438-1.431,3.404
		c-1.72,1.767-3.701,3.119-5.897,4.236c-8.946,4.551-14.078,1.441-14.181-8.648c0.67-2.462,2.009-2.827,3.98-1.284
		c0.678,0.529,1.371,1.122,1.726,1.856C86.623,163.027,90.107,163.513,94.25,162.321z"/>
	<path fill-rule="evenodd" clip-rule="evenodd" fill="#0A5F85" d="M114.342,159.836c2.061,0.171,1.937-3.03,4.12-2.67
		c1.149,6.858,2.685,13.694,0.957,20.696c-0.303,1.225-0.133,3.089-1.619,3.101c-1.877,0.015-1.032-1.929-1.23-3.052
		c-0.741-4.192-1.35-8.408-2.176-12.581C114.025,163.467,113.894,161.673,114.342,159.836z"/>
	<path fill-rule="evenodd" clip-rule="evenodd" fill="#056598" d="M74.578,142.296c1.746,2.001,1.857,5.253,4.75,6.498
		c1.033-1.784-0.86-3.03-0.48-4.564c0.933,0.131,1.418,0.604,1.672,1.579c0.773,2.984,1.674,5.936,2.527,8.899
		c-2.536,1.56-4.551-0.378-6.761-1.005c-0.321-0.279-0.643-0.559-0.963-0.838c-0.875-1.716-1.752-3.433-2.628-5.149
		C75.973,146.831,73.798,144.049,74.578,142.296z"/>
	<path fill-rule="evenodd" clip-rule="evenodd" fill="#F0F1F1" d="M99.468,166.525c2.737-4.241,5.665-7.78,9.026-11.02
		C110.423,162.027,106.333,167.172,99.468,166.525z"/>
	<path fill-rule="evenodd" clip-rule="evenodd" fill="#135C85" d="M113.283,177.726c-3.736-2.333-5.867-7.351-4.761-10.592
		c0.322-0.945,0.992-1.805,2.035-2.009c0.831-0.164,1.427,0.605,1.449,1.251C112.133,170.014,113.998,173.464,113.283,177.726z"/>
	<path fill-rule="evenodd" clip-rule="evenodd" fill="#050A11" d="M76.286,153.703c2.352-0.332,4.503,0.695,6.761,1.003
		c0.918,1.235,2.044,2.366,2.715,3.724c1.475,2.979,3.757,3.845,6.842,3.14c0.376,0.632,0.986,0.746,1.647,0.751
		c-3.627,2.38-6.816,2.444-9.379-1.615c-0.679-1.076-1.838-1.853-2.501-2.936c-1.511-2.468-2.531-1.43-3.558,0.335
		C78.802,156.16,77.402,155.013,76.286,153.703z"/>
	<path fill-rule="evenodd" clip-rule="evenodd" fill="#D9D9D9" d="M42.61,114.038c-2.687,2.138-3.949-0.921-5.604-1.8
		c-1.904-1.01-3.38-1.04-4.938,0.118c-1.071,0.795-0.516,1.748,0.175,2.566c0.416,1.488,0.83,2.976,1.351,4.842
		c-2.792-0.261-3.803-2.802-5.699-3.949c-3.823-3.122-5.57-7.677-7.73-11.835c-1.931-3.719-3.088-7.878-3.429-12.163
		c-0.584-9.466,0.676-18.731,3.016-27.877c0.56-3.273,1.66-6.362,3.353-9.215c0.681-1.146,1.135-2.845,3.141-2.087
		c1.38,4.855,5.059,8.915,4.97,14.288c-1.96,6.961-1.639,13.921,0.007,20.878c0.433,1.736,0.02,3.324-0.667,4.95
		c-3.587,8.503-0.717,13.558,8.253,14.651C40.924,109.129,41.474,111.75,42.61,114.038z"/>
	<path fill-rule="evenodd" clip-rule="evenodd" fill="#060606" d="M17.406,92.506c1.124,8.837,5.923,16.021,10.489,23.31
		c-1.912,2.595-2.344-0.437-3.45-0.908c0.42-2.413-1.303-3.983-2.386-5.74c-3.332-5.409-5.495-11.188-6.075-17.533
		c0.295-0.259,0.613-0.278,0.952-0.092C17.118,91.851,17.276,92.172,17.406,92.506z"/>
	<path fill-rule="evenodd" clip-rule="evenodd" fill="#060606" d="M42.61,114.038c-1.681-1.711-2.366-3.981-3.396-6.057
		c0.134-0.385,0.381-0.674,0.743-0.863c0.277-0.041,0.552-0.038,0.828,0.009c-0.193,2.481,2.001,3.985,2.525,6.173
		C43.076,113.546,42.843,113.792,42.61,114.038z"/>
	<path fill-rule="evenodd" clip-rule="evenodd" fill="#0F0909" d="M30.412,66.497c0.269-2.632-1.348-4.582-2.473-6.69
		c-1.157-2.167-2.233-4.319-1.76-6.887c-0.396-0.505-1.359-0.75-0.783-1.703c0.81-1.325,2.111-2.027,3.431-2.708
		c-0.047,4.151,0.35,8.174,3.333,11.443c2.999,6.987,5.58,14.071,4.47,21.881c-0.202,1.414,0.338,3.312-1.79,3.898
		c-1.826-2.003-1.107-4.621-1.61-6.936c-0.754-3.478-1.094-7.047-2.466-10.377C30.465,67.811,30.057,67.223,30.412,66.497z"/>
	<path fill-rule="evenodd" clip-rule="evenodd" fill="#21150F" d="M52.043,68.304c-8.997,2.161-12.272-2.585-11.68-9.192
		c0.187-2.08,1.072-4.096,1.638-6.142c1.111-1.334,2.223-2.666,3.334-3.999c0.667-0.197,1.452-0.792,1.675,0.5
		c0.19,2.073-1.504,3.323-2.213,5.006c-2.58,6.131-0.678,10.236,5.733,12.117C51.317,66.916,52.209,67.146,52.043,68.304z"/>
	<path fill-rule="evenodd" clip-rule="evenodd" fill="#0F0909" d="M45.278,76.339c6.464-1.887,6.464-1.887,11.993-9.507
		c-0.098,3.927-1.032,5.657-5.052,9.363c-0.711,0.928-1.599,1.364-2.775,0.995c-1.386-0.133-2.771-0.266-4.158-0.398
		C45.338,76.64,45.336,76.488,45.278,76.339z"/>
	<path fill-rule="evenodd" clip-rule="evenodd" fill="#1E1E1E" d="M33.256,22.775c-0.699-0.118-1.443-0.138-1.859-0.864
		c5.106-1.972,10.363-3.316,15.862-2.807c3.298,0.306,6.857,0.578,8.3,4.503C48.278,19.222,40.779,20.672,33.256,22.775z"/>
	<path fill-rule="evenodd" clip-rule="evenodd" fill="#060606" d="M17.406,92.506c-0.262-0.327-0.524-0.655-0.786-0.981
		c-0.88-3.344,0.249-6.809-0.618-10.154c0.306-6.479,1.814-12.736,3.517-18.956c0.893-0.081,1.109,0.338,0.829,1.123
		C18.392,73.094,16.623,82.671,17.406,92.506z"/>
	<path fill-rule="evenodd" clip-rule="evenodd" fill="#444448" d="M20.348,63.538c-0.276-0.375-0.553-0.749-0.829-1.123
		c0.997-4.238,2.08-8.431,5.877-11.198c0.26,0.567,0.522,1.135,0.783,1.703C21.77,55.104,22.168,59.93,20.348,63.538z"/>
	<path fill-rule="evenodd" clip-rule="evenodd" fill="#0D0D0D" d="M16.002,81.371c1.296,3.319,0.316,6.776,0.618,10.154
		c-0.206,0.077-0.418,0.114-0.637,0.11C15.99,88.214,15.997,84.792,16.002,81.371z"/>
	<path fill-rule="evenodd" clip-rule="evenodd" fill="#100B0B" d="M39.956,107.118c-0.248,0.287-0.495,0.575-0.743,0.863
		c-4.092,0.483-8.03-0.469-9.977-4.079c-1.941-3.604-2.667-7.888,0.429-11.593c1.091-1.305,0.509-2.707,0.676-4.069
		c0.273-0.275,0.605-0.437,0.984-0.508c1.479,0.082,2.852-1.016,4.382-0.421c0.991,0.072,1.982,0.145,3.037,0.221
		c-9.672,7.792-10.491,12.71-3.053,17.962C36.709,107.097,38.935,105.523,39.956,107.118z"/>
	<path fill-rule="evenodd" clip-rule="evenodd" fill="#D5D9D6" d="M35.708,87.312c-1.535,0.089-2.44,3.216-4.469,0.927
		c-2.509-5.964-1.594-12.163-1.236-18.321c0.059-1.009,0.401-1.943,1.527-2.299c2.703,5.745,3.004,11.929,3.311,18.111
		C35.13,86.258,35.419,86.785,35.708,87.312z"/>
	<path fill-rule="evenodd" clip-rule="evenodd" fill="#271810" d="M41.5,91.465c-2.983,3.889-2.41,5.854,1.966,7.338
		c-2.604,2.076-4.693,1.342-6.667-1.134c-0.548,1.264-0.975,2.253-1.44,3.326c-1.492-0.92-1.661-2.362-1.347-3.428
		C35.047,94.052,37.463,91.998,41.5,91.465z"/>
	<path fill-rule="evenodd" clip-rule="evenodd" fill="#F9FBF9" d="M50.1,67.429c-6.722-1.303-9.315-6.781-6.227-13.494
		c0.748-1.626,2.076-2.983,3.138-4.463c0.471,0.823,0.943,1.647,1.415,2.471c2.356,1.511,4.726,0.03,7.088,0.031
		c0.301,0.018,0.602,0.034,0.903,0.051c1.486,3.141,1.075,6.518,0.578,9.675C56.437,65.245,53.872,67.285,50.1,67.429z"/>
	<path fill-rule="evenodd" clip-rule="evenodd" fill="#120C0C" d="M55.514,51.974c-2.372,2.104-4.741,3.899-7.088-0.031
		c0.256-2.284,0.37-4.988,3.423-4.958C54.792,47.013,56.026,49.03,55.514,51.974z"/>
	<path fill-rule="evenodd" clip-rule="evenodd" fill="#302217" d="M50.1,67.429c5.087-1.41,6.677-5.035,6.374-9.93
		c-0.113-1.818-0.043-3.649-0.057-5.475c4.352,4.552,1.849,13.864-4.374,16.279C51.395,68.013,50.748,67.72,50.1,67.429z"/>
	<path fill-rule="evenodd" clip-rule="evenodd" fill="#FACA98" d="M49.444,77.19c0.925-0.332,1.851-0.664,2.775-0.995
		c1.472,0.803,3.615,1.691,2.672,3.568c-0.781,1.556-3.126,0.774-4.699,0.573C47.757,80.025,48.897,78.445,49.444,77.19z"/>
	<path fill-rule="evenodd" clip-rule="evenodd" fill="#060606" d="M31.53,67.618c-1.994,5.832-1.043,11.77-0.628,17.688
		c0.069,0.98,0.223,1.956,0.337,2.933c-0.299,0.001-0.599,0.002-0.897,0.002c-2.054-7.255-2.258-14.503,0.07-21.744
		C30.784,66.87,31.157,67.244,31.53,67.618z"/>
</g>
</svg>
