<?xml version="1.0" encoding="utf-8"?>
<!-- Generator: Adobe Illustrator 16.0.0, SVG Export Plug-In . SVG Version: 6.00 Build 0)  -->
<!DOCTYPE svg PUBLIC "-//W3C//DTD SVG 1.1//EN" "http://www.w3.org/Graphics/SVG/1.1/DTD/svg11.dtd">
<svg version="1.1" id="Layer_1" xmlns="http://www.w3.org/2000/svg" xmlns:xlink="http://www.w3.org/1999/xlink" x="0px" y="0px"
	 width="338.478px" height="64.689px" viewBox="0 0 338.478 64.689" enable-background="new 0 0 338.478 64.689"
	 xml:space="preserve">
<g>
	<path fill="#FDB000" d="M41.715,3.063c-2.464,0.411-4.75,1.435-6.796,2.894c-1.148,0.837-2.25,1.737-3.341,2.595
		c-1.384,1.08-2.502,2.416-3.458,3.877c-1.022,1.586-1.69,3.316-2.153,5.207c0.118-0.027,0.22-0.041,0.289-0.086
		c1.604-0.958,3.194-1.923,4.793-2.875c1.052-0.638,2.232-0.86,3.489-0.893c-3.855,2.96-7.453,6.161-9.972,10.329
		c2.818-1.103,5.562-2.845,8.912-2.621c-3.793,2.516-6.871,5.667-9.393,9.589c3.132-1.277,5.976-2.927,9.413-2.885
		c-0.454,0.84-0.847,1.611-1.28,2.331c-0.624,1.072-1.154,2.223-1.959,3.13c-1.719,1.963-3.755,3.57-6.244,4.457
		c-1.721,0.627-3.467,1.246-5.249,1.585c-1.571,0.305-3.227,0.276-4.829,0.285c-0.653,0-1.322-0.207-1.941-0.446
		c-2.022-0.827-3.562-2.314-4.856-4.003c-2.004-2.647-3.372-5.622-4.027-8.865c-0.284-1.31-0.34-2.678-0.54-3.988
		c-0.289-1.846-0.108-3.685,0.237-5.488c0.274-1.392,0.767-2.757,1.277-4.089c0.446-1.161,1.151-2.219,2.195-2.949
		c1.27-0.892,2.75-1.003,4.214-0.875c1.113,0.116,1.848,1.09,1.604,1.987c-0.282,1.021-0.623,2.007-0.981,2.985
		c-0.58,1.628-1.256,3.204-1.228,4.981c0.011,1.45,1.504,3.367,3.255,3.165c0.196-0.033,0.386-0.146,0.577-0.209
		c-0.099-0.155-0.195-0.32-0.334-0.435c-1.128-1.067-1.355-1.897,0.203-2.883c1.331-0.832,2.7-1.589,3.419-3.158
		c0.525-1.108,1.034-2.248,0.77-3.477c-0.438-2.13-1.768-3.692-3.654-4.688C11.882,6.36,9.518,6.229,7.095,7.005
		C5.621,7.471,4.34,8.231,3.389,9.507c-1.399,1.882-2.416,3.967-2.943,6.226c-0.329,1.392-0.448,2.868-0.443,4.309
		c0.018,1.979,0.139,3.97,0.394,5.917c0.18,1.4,0.521,2.802,1.037,4.104c0.669,1.701,1.565,3.327,2.409,4.961
		c1.2,2.323,2.264,4.702,2.607,7.332c0.077,0.762,0.206,1.572,0.084,2.322c-0.328,1.699-1.189,3.194-2.107,4.646
		c-1.069,1.703-2.143,3.429-3.076,5.213c-0.791,1.52-0.625,3.14,0.498,4.493c0.604,0.72,1.197,1.44,1.608,2.276
		c0.523,1.004,0.789,2.112,0.358,3.339c3.506,0.165,6.96-0.184,10.486-0.341c-0.014-0.179,0-0.294-0.047-0.324
		c-0.998-0.889-1.426-2.1-1.91-3.283c-0.214-0.54-0.597-0.736-1.172-0.534c-0.465,0.163-0.937,0.279-1.402,0.392
		c-0.685,0.174-1.145-0.277-0.974-0.99c0.103-0.449,0.236-0.9,0.273-1.352c0.036-0.551,0.347-0.735,0.777-0.846
		c1.94-0.433,3.682-1.27,5.056-2.7c0.897-0.944,1.62-2.04,2.486-3.011c0.829-0.936,1.703-1.819,2.613-2.674
		c0.418-0.393,1.009-0.554,1.603-0.424c0.663,0.147,1.316,0.367,1.967,0.542c1.828,0.481,3.63,0.985,5.447,1.409
		c3.316,0.78,6.662,1.464,9.979,2.26c2.076,0.494,4.158,0.43,6.233,0.188c1.982-0.228,3.979-0.572,5.962-0.85
		c0.158-0.011,0.451,0.144,0.513,0.291c0.33,0.618,0.562,1.279,0.891,1.908c0.583,1.051,1.09,2.16,1.823,3.106
		c1.095,1.413,2.375,2.692,3.528,4.076c0.614,0.771,1.102,1.64,0.885,2.71c-0.01,0.067,0.188,0.26,0.306,0.278
		c0.531,0.064,1.055,0.136,1.589,0.136c1.495-0.029,3.004-0.087,4.497-0.136c1.146-0.029,2.295-0.081,3.449-0.116
		c0.156-0.017,0.315-0.057,0.429-0.079c-0.356-0.494-0.729-0.902-0.979-1.372c-0.355-0.679-0.64-1.384-0.93-2.104
		c-0.316-0.755-0.75-0.976-1.54-0.749c-0.392,0.122-0.777,0.216-1.141,0.4c-1.237,0.626-1.717,0.063-2.146-0.806
		c-0.253-0.465-0.431-1.021-0.457-1.551c-0.106-1.619-0.056-3.237,0.363-4.826c0.363-1.389,0.805-2.777,1.212-4.163
		c0.131-0.39,0.327-0.636,0.831-0.406c0.953,0.415,1.945,0.759,2.911,1.146c0.738,0.307,1.475,0.646,2.239,0.995
		c-0.107-0.836-0.129-1.557-0.303-2.271c-0.474-1.95-0.102-3.891,0.121-5.83c0.152-1.312,0.444-2.578,0.626-3.893
		c0.206-1.332,0.255-2.708,0.55-4.027c0.326-1.517-0.126-2.693-1.22-3.679c-1.217-1.099-2.659-1.863-4.175-2.496
		c-0.818-0.347-1.675-0.647-2.479-1.007c-0.259-0.114-0.705-0.288-0.429-0.705c0.287-0.408,0.637-0.873,1.055-1.116
		c1.382-0.765,3.233-0.019,4.448,1.031c0.671,0.591,1.216,1.32,1.885,2.066c0.061-0.318,0.149-0.62,0.189-0.921
		c0.186-1.124,0.393-2.26-0.072-3.366c-0.158-0.337-0.431-0.649-0.483-0.993c-0.105-0.671-0.275-0.817-0.904-0.476
		c-0.509,0.263-1.021,0.496-1.621,0.41c-1.02-0.13-2.018-0.229-3.027-0.367c-0.515-0.081-1.049-0.163-1.545-0.33
		c-0.957-0.304-0.981-0.403-0.747-1.399c0.265-1.143,0.796-2.154,1.91-2.55c0.804-0.263,1.719-0.195,2.59-0.317
		c0.894-0.121,1.684,0.053,2.252,0.825c0.132,0.204,0.379,0.295,0.688,0.488c0.055-0.274,0.067-0.491,0.136-0.669
		c0.116-0.336,0.198-0.654,0.352-0.94c0.272-0.473,0.669-0.901,0.859-1.403c0.263-0.711,0.331-1.495,0.552-2.224
		c0.358-1.086,0.327-2.139,0.066-3.251c-0.171-0.692-0.121-1.434-0.083-2.138c0.033-0.644,0.21-1.267,0.353-2.076
		c-0.656,0.041-1.132,0.053-1.594,0.102c-0.742,0.065-1.512,0.135-2.223,0.256c-1.088,0.181-2.155,0.388-3.19,0.672
		c-0.735,0.196-1.415,0.587-2.131,0.832c-0.144,0.062-0.396-0.04-0.522-0.146c-0.289-0.27-0.463-0.729-0.774-0.824
		c-1.032-0.313-2.11-0.5-3.158-0.786c-0.46-0.134-0.916-0.409-1.308-0.693c-0.657-0.471-1.247-1.106-1.955-1.49
		c-2.067-1.111-4.222-1.855-6.583-2.18c-0.878-0.108-1.755-0.171-2.63-0.171C43.858,2.798,42.793,2.886,41.715,3.063"/>
	<polygon fill="#000059" points="110.32,5.302 104.053,5.315 94.256,19.072 94.256,5.326 89.015,5.326 89.052,33.878 94.288,33.867 
		94.266,19.698 103.741,33.855 110.427,33.855 100.313,19.301 	"/>
	<polygon fill="#000059" points="112.277,5.302 112.322,33.835 117.812,33.835 117.761,5.296 	"/>
	<polygon fill="#000059" points="137.805,5.272 138.015,25.828 127.86,5.279 121.229,5.279 121.25,33.826 126.626,33.826 
		126.386,12.279 137.082,33.804 143.116,33.804 143.063,5.266 	"/>
	<path fill="#000059" d="M157.209,16.871l0.023,5.036h6.967v6.689c-5.557-0.016-8.791-0.435-9.696-1.292
		c-0.878-0.84-1.435-1.967-1.712-3.395c-0.063-0.311-0.151-0.715-0.159-1.172l-0.013-0.062c-0.017-0.229-0.061-0.569-0.125-0.996
		l-0.102-2.968c0-2.347,0.386-4.233,1.15-5.676c1.014-1.898,2.586-2.833,4.758-2.843l11.211-0.008l-0.035-4.971
		c-8.452,0.021-13.242,0.117-14.331,0.271c-1.107,0.146-1.972,0.422-2.632,0.827c-2.314,1.335-3.937,3.23-4.861,5.724
		c-0.741,1.985-1.129,4.339-1.123,7.12c-0.028,2.671,0.231,4.903,0.714,6.701c0.64,2.17,1.501,3.804,2.61,4.915l1.249,1.12
		c0.616,0.419,1.058,0.702,1.371,0.871l1.884,0.704c0.349,0.102,0.686,0.188,1.051,0.229l0.086,0.051
		c0.096,0.022,0.377,0.029,0.803,0.029l13.236-0.021l-0.031-16.897L157.209,16.871z"/>
	<path fill="#000059" d="M194.584,19.405l-0.755-0.705l-0.606-0.522c-0.522-0.345-1.017-0.581-1.591-0.698l-0.713-0.17l-0.848-0.126
		l-1.982-0.021c-5.525,0-8.614-0.25-9.274-0.753c-0.637-0.544-0.922-1.424-0.953-2.579c0.021-1.15,0.377-2.051,1.11-2.661
		c0.766-0.541,1.743-0.822,2.996-0.836l12.933-0.024l-0.02-5.107h-13.77c-2.757,0.012-4.865,0.646-6.287,1.887
		c-1.604,1.463-2.413,3.908-2.413,7.352c0,3.441,1.304,5.744,3.944,6.884c1.192,0.535,3.082,0.806,5.687,0.806l1.687-0.046h1.205
		c2.781,0,4.478,0.338,5.087,1.009c0.091,0.146,0.208,0.315,0.278,0.527c0.131,0.188,0.177,0.416,0.23,0.713
		c0.063,0.313,0.075,0.911,0.075,1.792c0.023,0.822-0.446,1.479-1.282,1.979c-0.571,0.348-1.496,0.527-2.764,0.527l-13.098,0.016
		l0.032,5.126c12.059-0.029,18.796-0.639,20.189-1.863c1.636-1.374,2.432-3.134,2.412-5.285c0.02-2.032-0.106-3.592-0.324-4.68
		C195.549,20.812,195.12,19.961,194.584,19.405"/>
	<path fill="#000059" d="M240.19,17.309c1.684-1.089,2.462-2.719,2.484-4.924l-0.015-0.764c0-3.694-3.672-6.652-6.685-6.633
		c-0.485,0-0.85,0.374-0.808,0.832l-0.042,2.157c0,0.459,0.42,0.848,0.857,0.829c1.176,0,2.497,1.502,2.538,2.826l0.009,1.296
		c-0.009,1.866-1.318,2.541-2.604,2.541h-3.317c-0.455,0.006-0.844,0.375-0.838,0.858v2.104c0.012,0.47,0.383,0.851,0.838,0.841
		l3.462,0.01c1.699-0.01,3.143,2.175,3.143,4.8l0.03,1.789c-0.023,2.847-1.287,4.177-3.985,4.188c-2.722,0-3.97-1.834-3.955-3.486
		v-0.841c-0.021-0.74,0.239-1.734,0.97-2.307c0.202-0.146,0.308-0.354,0.308-0.594c0.042-0.22-0.044-0.448-0.189-0.63l-1.339-1.475
		c-0.255-0.338-0.702-0.402-1.081-0.171c-1.442,0.966-2.84,2.832-2.83,4.841l-0.032,1.567c0.022,3.337,3.3,6.89,8.164,6.89
		c4.755-0.015,8.089-3.279,8.089-7.983l0.024-1.811C243.362,20.812,242.313,18.588,240.19,17.309"/>
	<path fill="#000059" d="M253.127,4.947c-3.708,0-8.119,1.931-8.075,10.991l0.007,6.421c-0.007,6.899,1.876,10.771,5.629,11.467
		c0.049,0.008,0.115,0,0.155,0.008c0.21,0,0.367-0.079,0.543-0.19c0.189-0.153,0.295-0.382,0.295-0.635l0.057-2.116
		c0-0.233-0.099-0.458-0.255-0.613c-0.161-0.158-0.373-0.245-0.584-0.245c-0.57,0.015-1.711-1.941-1.699-7.675l-0.033-6.473
		c-0.011-5.302,1.051-7.103,4.129-7.103c2.35,0,3.836,1.162,3.836,6.987v6.573c0,5.238-1.352,7.689-2.246,7.689
		c-0.251,0.015-0.479,0.1-0.626,0.271c-0.163,0.186-0.27,0.416-0.239,0.645l0.188,2.122c0.029,0.242,0.198,0.452,0.369,0.593
		c0.178,0.14,0.435,0.203,0.668,0.162c5.198-1.198,6.022-7.776,6.022-11.565l0.054-6.499
		C261.289,11.107,260.423,4.947,253.127,4.947"/>
	<path fill="#000059" d="M272.523,13.137c-1.01,0-2.643,0.235-4.168,1.521V11c-0.046-1.887,1.129-1.887,1.567-1.904l0.105,0.012
		c0.776,0,1.531,0.15,2.305,0.338c0.819,0.162,1.675,0.354,2.62,0.362c1.7,0,3.081-0.42,4.778-1.457
		c0.213-0.138,0.419-0.431,0.4-0.722l0.019-1.854c-0.043-0.292-0.142-0.572-0.419-0.725c-0.233-0.168-0.524-0.168-0.797-0.051
		l-0.104,0.051c-1.531,0.691-2.409,1.09-3.627,1.09c-0.749,0-1.571-0.2-2.427-0.398c-1.052-0.229-2.101-0.478-3.229-0.47
		c-3.101,0.007-5.137,2.21-5.115,5.586v14.818c0.045,4.857,3.293,8.146,8.153,8.127c5.006,0,8.088-3.107,8.088-8.122v-4.44
		C280.654,17.223,277.888,13.117,272.523,13.137 M276.527,25.403c0.02,3.075-1.281,4.604-3.979,4.604
		c-3.631,0-3.963-3.325-3.963-4.359l-0.025-4.243c0.025-4.493,2.411-4.505,4.026-4.493c3.564-0.021,3.941,3.118,3.941,4.44V25.403z"
		/>
	<path fill="#000059" d="M295.619,14.523l1.364-2.952c0.038-0.108,0.078-0.234,0.078-0.36c0-4.02-2.345-6.315-6.41-6.308
		c-3.166,0-6.577,2.096-6.577,5.457v2.277c0.016,0.479,0.378,0.849,0.836,0.859l2.241-0.011c0.439,0.011,0.815-0.369,0.841-0.849
		v-2.28c-0.044-1.407,1.653-1.617,2.659-1.617c1.345,0,2.345,1.442,2.47,2.314l-1.444,2.899c-6.455,0.441-9.346,4.82-9.325,9.087
		v2.109c0,3.602,3.523,8.628,9.2,8.628c6.749,0,9.282-5.162,9.388-8.645V22.66C301.002,18.412,298.048,15.658,295.619,14.523
		 M296.729,24.828c0.021,1.938-0.652,5.177-5.029,5.177c-3.816,0-5.177-3.095-5.199-5.17l0.022-1.7
		c-0.022-3.364,1.737-5.363,4.692-5.363h1.237c2.892,0.012,4.276,2.879,4.276,4.828V24.828z"/>
	<path fill="#000059" d="M314.834,14.795c0-0.568,0.15-0.772,0.711-1.547l0.169-0.194c0.166-0.229,0.234-0.521,0.126-0.78
		c-0.088-0.266-0.295-0.476-0.586-0.547l-2.472-0.704c-0.355-0.082-0.716,0.038-0.899,0.338c-0.927,1.329-1.097,2.496-1.073,3.435
		c-0.023,1.506,1.01,2.809,2.057,4.149c1.134,1.438,2.241,2.894,2.241,4.637v1.014c0.02,1.597-0.357,5.379-3.941,5.365
		c-2.682,0.014-4.002-1.753-4.002-5.315V5.724c-0.021-0.459-0.38-0.841-0.859-0.841h-2.477c-0.459,0-0.834,0.382-0.794,0.841v18.921
		c0,5.713,3.037,9.112,8.112,9.098c4.714,0.015,8.131-3.754,8.106-8.91l0.024-1.635c-0.024-2.384-1.468-4.072-2.725-5.551
		C315.607,16.585,314.834,15.668,314.834,14.795"/>
	<path fill="#000059" d="M329.022,4.842c-3.711,0.021-8.092,1.926-8.092,11.023v6.416c0.022,6.892,1.909,10.747,5.66,11.436
		c0.039,0.012,0.124,0.012,0.147,0.025c0.167,0,0.4-0.062,0.545-0.204c0.186-0.143,0.294-0.405,0.316-0.635V30.79
		c0.04-0.236-0.066-0.454-0.209-0.606c-0.174-0.149-0.381-0.238-0.59-0.244c-0.547-0.016-1.699-1.932-1.718-7.679l0.019-6.477
		c-0.019-5.298,1.004-7.089,4.067-7.101c2.369-0.006,3.857,1.161,3.835,6.984l0.022,6.593c-0.022,5.237-1.345,7.679-2.245,7.663
		c-0.252,0-0.482,0.11-0.628,0.288c-0.165,0.188-0.253,0.425-0.232,0.645l0.19,2.11c0.042,0.249,0.188,0.462,0.377,0.6
		c0.188,0.132,0.418,0.19,0.673,0.132c5.178-1.165,6.016-7.729,6.016-11.549l0.038-6.491
		C337.215,10.998,336.339,4.842,329.022,4.842"/>
	<path fill="#000059" d="M212.082-0.001c-1.557,0.027-2.816,1.255-2.809,2.809l0.036,33.829c0.019,1.567,1.286,2.813,2.817,2.813
		c1.566,0,2.829-1.26,2.829-2.84l-0.041-33.802C214.915,1.254,213.624-0.001,212.082-0.001"/>
	<path fill="#000059" d="M134.021,52.145h-0.492c-1.412,0-1.454,0.429-1.454,1.475v3.935c0,1.625,0.426,1.646,1.517,1.646h0.386
		c1.196,0,1.496-0.213,1.496-1.773v-3.848C135.473,52.466,135.238,52.145,134.021,52.145"/>
	<path fill="#000059" d="M157.324,47.935l-0.387-0.064c0.064,0.405,0.107,1.217,0.107,1.625l0.064,4.51
		c0,0.278-0.107,0.534-0.493,0.534h-1.024c-0.322,0-0.493-0.256-0.493-0.534l0.065-4.489c0-0.407,0.02-1.24,0.085-1.646
		l-0.364,0.064c-1.047,0-1.775,0.491-1.775,1.882v7.566c0,1.39,0.729,1.881,1.775,1.881h2.331c1.047,0,1.775-0.491,1.775-1.881
		v-7.566C158.991,48.426,158.37,47.935,157.324,47.935"/>
	<path fill="#000059" d="M297.227,52.06h-0.579c-1.304,0-1.304,0.471-1.304,1.434v4.23c0,1.263,0.19,1.54,1.389,1.54h0.365
		c1.132,0,1.431-0.149,1.431-1.517v-4.298C298.528,52.359,298.251,52.06,297.227,52.06"/>
	<path fill="#000059" d="M86.772,63.461h251.707v-19.77H86.772V63.461z M103.212,47.399c0,0.384-0.211,0.492-0.489,0.492h-0.621
		c-0.834,0-0.963,0.234-0.963,0.875v0.234c0,0.277-0.106,0.494-0.492,0.494h-1.26c-0.322,0-0.492-0.217-0.492-0.494v-0.19
		c0-0.791-0.193-1.069-0.855-1.069c-0.727,0-0.941,0.3-0.941,1.496v1.603c0.407-0.318,0.941-0.385,1.688-0.385h0.131
		c2.801,0,3.998,0.344,3.998,3.164v4.169c0.064,2.653-0.834,3.295-3.357,3.295h-1.432c-2.568,0-3.357-0.579-3.357-3.551v-8.381
		c0-2.78,1.303-3.336,3.102-3.336c1.261,0,1.729,0.472,2.138,1.221h0.084c0.365-0.749,1.154-1.07,1.989-1.07h0.643
		c0.278,0,0.489,0.171,0.489,0.493V47.399z M113.048,57.724c-0.022,2.46-0.429,3.359-3.4,3.359h-0.876
		c-2.246,0-3.398-0.386-3.398-2.78v-2.864c0-0.278,0.171-0.493,0.491-0.493h1.262c0.384,0,0.49,0.215,0.49,0.493v2.265
		c0,1.198,0.086,1.561,1.199,1.561h0.768c0.921,0,1.219-0.256,1.219-1.432l0.024-3.293c-0.024-3.271-3.595-4.49-3.595-7.59v-0.49
		c0-0.278,0.173-0.493,0.491-0.493h1.262c0.387,0,0.491,0.215,0.491,0.493v0.47c0,2.33,3.593,4.189,3.593,7.61L113.048,57.724z
		 M127.113,60.441c0,0.277-0.105,0.491-0.491,0.491h-1.303c-0.32,0-0.492-0.214-0.492-0.491v-0.214l0.022-6.372
		c0-1.623-0.323-1.689-1.263-1.689c-0.833,0-0.965,0.555-0.965,1.519v3.551c0,0.276-0.104,0.488-0.489,0.488h-1.369
		c-0.32,0-0.491-0.212-0.491-0.488v-3.51c0-1.195-0.214-1.56-0.963-1.56c-0.727,0-1.218,0.149-1.218,1.348v6.928
		c0,0.277-0.105,0.491-0.491,0.491h-1.283c-0.321,0-0.492-0.214-0.492-0.491V49.516c0-2.286,1.389-3.55,3.87-3.55h5.624
		c0.279,0,0.489,0.107,0.489,0.493v0.833c0,0.322-0.21,0.491-0.489,0.491h-5.473c-1.048,0-1.776,0.492-1.776,1.881v1.092
		c0.342-0.279,0.92-0.515,1.434-0.515c1.09,0,1.624,0.408,1.969,1.027h0.104c0.321-0.643,1.219-1.027,1.988-1.027
		c1.818,0,3.548,0.043,3.548,3.315V60.441z M137.782,57.853c0,2.567-0.834,3.23-3.399,3.23h-1.218c-2.333,0-3.399-0.321-3.399-3.422
		V53.32c0-2.48,0.875-3.079,3.677-3.079h0.644c0.596,0,1.067,0.214,1.387,0.428v-1.496c0-1.197-0.406-1.432-1.195-1.432h-1.006
		c-0.75,0-1.262,0.3-1.262,1.003c0,0.279-0.106,0.493-0.493,0.493h-1.261c-0.32,0-0.49-0.214-0.49-0.493
		c-0.022-1.987,0.898-2.929,3.291-2.929h1.432c2.674,0,3.294,1.414,3.294,3.743V57.853z M148.023,57.724
		c-0.021,2.46-0.429,3.359-3.4,3.359h-0.875c-2.247,0-3.4-0.386-3.4-2.78v-2.864c0-0.278,0.17-0.493,0.49-0.493h1.264
		c0.385,0,0.491,0.215,0.491,0.493v2.265c0,1.198,0.086,1.561,1.196,1.561h0.77c0.921,0,1.221-0.256,1.221-1.432l0.02-3.293
		c-0.02-3.271-3.592-4.49-3.592-7.59v-0.49c0-0.278,0.17-0.493,0.491-0.493h1.265c0.384,0,0.49,0.215,0.49,0.493v0.47
		c0,2.33,3.592,4.189,3.592,7.61L148.023,57.724z M161.235,57.532c0,2.287-1.388,3.551-3.87,3.551h-2.631
		c-2.478,0-3.868-1.264-3.868-3.551v-7.868c0-2.287,1.391-3.549,3.868-3.549h0.406v-0.191c0-0.278,0.171-0.407,0.491-0.407h0.943
		c0.382,0,0.49,0.129,0.49,0.407v0.191h0.342c2.48,0,3.828,1.262,3.828,3.549V57.532z M171.988,57.812
		c0,2.587-1.069,3.271-3.186,3.271h-1.452c-2.697,0-3.485-0.386-3.485-3.422l-0.023-2.223c0-0.278,0.172-0.493,0.493-0.493h1.325
		c0.384,0,0.491,0.215,0.491,0.493v2.073c0,1.346,0.191,1.688,1.199,1.688h1.196c0.919,0,1.111-0.427,1.111-1.561v-8.51
		c0-1.088-0.192-1.388-1.477-1.388h-0.578c-0.896,0-1.217,0.406-1.261,1.41v0.621c0,0.276-0.104,0.491-0.49,0.491h-1.285
		c-0.318,0-0.489-0.215-0.489-0.491v-0.494c0-2.927,1.131-3.463,3.443-3.463h0.768c3.122,0,3.699,0.835,3.699,3.23V57.812z
		 M182.699,57.619c0,2.95-0.471,3.464-3.378,3.464h-1.22c-2.498,0-3.419-0.344-3.419-3.464v-4.276c0-2.395,0.938-3.102,3.438-3.102
		c0-2.051-2.157-0.939-2.157-3.313v-0.47c0-0.278,0.171-0.493,0.493-0.493h1.323c0.386,0,0.495,0.215,0.495,0.493v0.362
		c0,1.903,2.006,0.834,2.006,3.483c2.14,0.108,2.418,1.69,2.418,3.08V57.619z M192.918,57.724c-0.02,2.46-0.429,3.359-3.4,3.359
		h-0.875c-2.245,0-3.399-0.386-3.399-2.78v-2.864c0-0.278,0.171-0.493,0.491-0.493h1.262c0.385,0,0.49,0.215,0.49,0.493v2.265
		c0,1.198,0.088,1.561,1.2,1.561h0.767c0.922,0,1.221-0.256,1.221-1.432l0.02-3.293c-0.02-3.271-3.59-4.49-3.59-7.59v-0.49
		c0-0.278,0.171-0.493,0.492-0.493h1.261c0.385,0,0.491,0.215,0.491,0.493v0.47c0,2.33,3.591,4.189,3.591,7.61L192.918,57.724z
		 M208.973,57.426c0,3.058-0.746,3.657-3.418,3.657h-1.285c-3.144,0-3.422-1.198-3.422-3.486v-4.212c0-2.801,1.368-3.144,3.55-3.144
		h0.964v-1.795c0-0.576-0.087-0.877-1.005-0.877c-0.772,0-0.877,0.428-0.877,0.792v0.214c0,0.276-0.173,0.491-0.493,0.491h-1.326
		c-0.383,0-0.491-0.215-0.491-0.491v-0.193c0-1.22,0.643-2.566,3.165-2.566c2.331,0,3.229,0.729,3.229,3.08v1.626
		c1.176,0.383,1.41,1.389,1.41,2.992V57.426z M219.941,57.812c0,2.587-1.071,3.271-3.185,3.271h-1.626
		c-2.696,0-3.485-0.386-3.485-3.422l-0.021-2.223c0-0.278,0.169-0.493,0.49-0.493h1.303c0.387,0,0.494,0.215,0.494,0.493
		l0.021,2.073c0,1.346,0.193,1.688,1.197,1.688h1.366c0.921,0,1.113-0.427,1.113-1.561v-2.544c0-1.28-0.214-1.56-1.346-1.56h-0.344
		c-0.235,0-0.364-0.15-0.364-0.344v-1.261c0-0.192,0.129-0.276,0.364-0.276c1.304,0,1.476-0.279,1.476-1.048v-1.478
		c0-1.088-0.193-1.388-1.476-1.388h-0.596c-0.901,0-1.22,0.406-1.264,1.41v0.621c0,0.276-0.108,0.491-0.491,0.491h-1.284
		c-0.319,0-0.492-0.215-0.492-0.491v-0.494c0-2.927,1.133-3.463,3.442-3.463h0.791c3.122,0,3.698,0.835,3.698,3.23v1.538
		c0,0.791-0.512,1.496-1.346,1.946v0.105c1.026,0.15,1.562,1.413,1.562,2.096V57.812z M230.138,57.724
		c-0.019,2.46-0.426,3.359-3.398,3.359h-0.877c-2.244,0-3.397-0.386-3.397-2.78v-2.864c0-0.278,0.17-0.493,0.49-0.493h1.261
		c0.386,0,0.493,0.215,0.493,0.493v2.265c0,1.198,0.084,1.561,1.195,1.561h0.77c0.921,0,1.22-0.256,1.22-1.432l0.022-3.293
		c-0.022-3.271-3.593-4.49-3.593-7.59v-0.49c0-0.278,0.171-0.493,0.492-0.493h1.263c0.383,0,0.49,0.215,0.49,0.493v0.47
		c0,2.33,3.592,4.189,3.592,7.61L230.138,57.724z M240.892,57.812c0,2.587-1.069,3.271-3.186,3.271h-1.454
		c-2.693,0-3.483-0.386-3.483-3.422l-0.021-2.223c0-0.278,0.17-0.493,0.49-0.493h1.326c0.386,0,0.49,0.215,0.49,0.493v2.073
		c0,1.346,0.193,1.688,1.197,1.688h1.199c0.917,0,1.11-0.427,1.11-1.561v-8.51c0-1.088-0.193-1.388-1.476-1.388h-0.576
		c-0.899,0-1.219,0.406-1.262,1.41v0.621c0,0.276-0.107,0.491-0.492,0.491h-1.282c-0.321,0-0.493-0.215-0.493-0.491v-0.494
		c0-2.927,1.135-3.463,3.444-3.463h0.767c3.125,0,3.7,0.835,3.7,3.23V57.812z M254.96,60.441c0,0.277-0.108,0.491-0.49,0.491h-1.308
		c-0.318,0-0.491-0.214-0.491-0.491v-0.214l0.023-6.372c0-1.623-0.323-1.689-1.264-1.689c-0.832,0-0.962,0.555-0.962,1.519v3.551
		c0,0.276-0.106,0.488-0.49,0.488h-1.369c-0.321,0-0.492-0.212-0.492-0.488v-3.51c0-1.195-0.212-1.56-0.961-1.56
		c-0.726,0-1.221,0.149-1.221,1.348v6.928c0,0.277-0.104,0.491-0.49,0.491h-1.281c-0.321,0-0.492-0.214-0.492-0.491V49.516
		c0-2.286,1.39-3.55,3.869-3.55h5.621c0.278,0,0.493,0.107,0.493,0.493v0.833c0,0.322-0.215,0.491-0.493,0.491h-5.473
		c-1.047,0-1.773,0.492-1.773,1.881v1.092c0.341-0.279,0.92-0.515,1.432-0.515c1.092,0,1.626,0.408,1.969,1.027h0.105
		c0.321-0.643,1.218-1.027,1.988-1.027c1.818,0,3.55,0.043,3.55,3.315V60.441z M269.582,60.441c0,0.277-0.107,0.491-0.49,0.491
		h-1.327c-0.32,0-0.491-0.214-0.491-0.491V48.896c0-0.748-0.192-1.154-1.197-1.154c-0.877,0-0.983,0.705-0.983,1.582v8.253
		c0,2.586-0.62,3.507-3.592,3.507h-0.385c-2.799,0-3.486-1.111-3.486-3.102v-9.022c0-2.479,1.819-3.144,3.7-3.144
		c0.855,0,2.138,0.45,2.564,1.262h0.107c0.407-0.79,1.134-1.262,2.16-1.262h0.407c2.222,0,3.013,0.855,3.013,3.336V60.441z
		 M280.121,60.441c0,0.277-0.105,0.491-0.49,0.491h-1.264c-0.318,0-0.49-0.214-0.49-0.491v-11.29c0-1.11-0.213-1.517-1.304-1.517
		h-0.685c-1.11,0-1.305,0.362-1.305,1.644v11.163c0,0.277-0.106,0.491-0.491,0.491h-1.26c-0.322,0-0.494-0.214-0.494-0.491v-11.29
		c0-2.33,0.663-3.336,3.187-3.336h1.411c2.886,0,3.185,1.497,3.185,3.463V60.441z M290.36,57.724
		c-0.018,2.46-0.426,3.359-3.397,3.359h-0.876c-2.245,0-3.398-0.386-3.398-2.78v-2.864c0-0.278,0.17-0.493,0.489-0.493h1.262
		c0.386,0,0.492,0.215,0.492,0.493v2.265c0,1.198,0.087,1.561,1.2,1.561h0.768c0.92,0,1.219-0.256,1.219-1.432l0.021-3.293
		c-0.021-3.271-3.593-4.49-3.593-7.59v-0.49c0-0.278,0.174-0.493,0.495-0.493h1.261c0.385,0,0.49,0.215,0.49,0.493v0.47
		c0,2.33,3.593,4.189,3.593,7.61L290.36,57.724z M300.774,57.724c0,2.675-0.62,3.359-3.293,3.359h-1.09
		c-2.674,0-3.293-0.771-3.293-3.251v-8.894c0-2.332,0.854-2.973,3.163-2.973h3.467c0.276,0,0.49,0.107,0.49,0.493v0.791
		c0,0.319-0.214,0.491-0.49,0.491h-3.467c-0.831,0-0.918,0.449-0.918,1.561v1.324c0.49-0.321,1.068-0.385,1.58-0.385h0.729
		c2.886,0,3.121,1.134,3.121,3.229V57.724z M311.463,57.812c0,2.587-1.068,3.271-3.187,3.271h-1.449
		c-2.697,0-3.487-0.386-3.487-3.422l-0.022-2.223c0-0.278,0.17-0.493,0.49-0.493h1.326c0.386,0,0.493,0.215,0.493,0.493v2.073
		c0,1.346,0.192,1.688,1.2,1.688h1.194c0.918,0,1.112-0.427,1.112-1.561v-8.51c0-1.088-0.194-1.388-1.476-1.388h-0.576
		c-0.898,0-1.219,0.406-1.263,1.41v0.621c0,0.276-0.107,0.491-0.492,0.491h-1.281c-0.322,0-0.493-0.215-0.493-0.491v-0.494
		c0-2.927,1.133-3.463,3.443-3.463h0.769c3.122,0,3.698,0.835,3.698,3.23V57.812z M322.174,57.619c0,2.95-0.47,3.464-3.377,3.464
		h-1.219c-2.5,0-3.42-0.344-3.42-3.464v-4.276c0-2.395,0.939-3.102,3.441-3.102c0-2.051-2.16-0.939-2.16-3.313v-0.47
		c0-0.278,0.172-0.493,0.492-0.493h1.324c0.386,0,0.494,0.215,0.494,0.493v0.362c0,1.903,2.007,0.834,2.007,3.483
		c2.141,0.108,2.417,1.69,2.417,3.08V57.619z M332.715,57.489c0,3.165-0.984,3.594-3.293,3.594h-1.241
		c-2.373,0-3.292-0.556-3.292-3.486V46.459c0-0.278,0.108-0.493,0.491-0.493h1.326c0.32,0,0.491,0.215,0.491,0.493v11.073
		c0,1.218,0.15,1.667,1.262,1.667h0.728c1.091,0,1.239-0.427,1.239-1.538v-6.713c0-0.279,0.107-0.493,0.493-0.493h1.302
		c0.32,0,0.494,0.214,0.494,0.493V57.489z"/>
	<path fill="#000059" d="M261.289,47.741c-0.836,0-1.328,0.193-1.328,1.282v8.915c0,0.834,0.428,1.261,1.328,1.261
		c1.088,0,1.474-0.471,1.474-1.174v-9.194C262.763,48.082,262.377,47.741,261.289,47.741"/>
	<path fill="#000059" d="M97.098,57.532c0,1.305,0.15,1.667,1.263,1.667h0.981c1.027,0,1.264-0.232,1.264-1.688v-3.615
		c-0.065-1.261-0.217-1.537-1.604-1.537H98.68c-1.305,0-1.582,0.213-1.582,1.496V57.532z"/>
	<path fill="#000059" d="M178.871,52.145h-0.363c-1.346,0-1.494,0.3-1.494,1.391v4.126c0.062,1.325,0.255,1.562,1.431,1.562h0.45
		c1.282,0,1.496-0.215,1.496-1.669v-3.869C180.391,52.466,180.281,52.145,178.871,52.145"/>
	<path fill="#000059" d="M205.17,52.145h-0.515c-1.349,0-1.496,0.429-1.496,1.496v3.979c0,1.26,0.234,1.56,1.238,1.56h1.028
		c1.046,0,1.239-0.362,1.239-1.667v-3.827C206.665,52.359,206.301,52.145,205.17,52.145"/>
	<path fill="#000059" d="M318.347,52.145h-0.362c-1.348,0-1.496,0.3-1.496,1.391v4.126c0.063,1.325,0.255,1.562,1.433,1.562h0.448
		c1.281,0,1.496-0.215,1.496-1.669v-3.869C319.865,52.466,319.757,52.145,318.347,52.145"/>
</g>
</svg>
